<svg id="Capa_1" data-name="Capa 1" xmlns="http://www.w3.org/2000/svg" viewBox="0 0 2479 880"><defs><style>.cls-1{fill:#7d7d7d;}</style></defs><title>recursos LOGO LA GRANERA SVG</title><rect class="cls-1" x="718.08" y="344.98" width="10.89" height="95.1" rx="2.14"/><path class="cls-1" d="M827.6,345h-5.77a2.14,2.14,0,0,0-2.15,2.14v73.21l-54.74-73.27a5,5,0,0,0-1.94-1.67h0a5.63,5.63,0,0,0-2.27-.4h-3.21a2.14,2.14,0,0,0-2.14,2.14v90.82a2.14,2.14,0,0,0,2.14,2.14h5.72a2.14,2.14,0,0,0,2.14-2.14V364.52l55,73.36a4.86,4.86,0,0,0,4.13,2.2h3.14a2.14,2.14,0,0,0,2.14-2.14V347.12A2.14,2.14,0,0,0,827.6,345Z"/><path class="cls-1" d="M924.13,345H919a4.4,4.4,0,0,0-2.89,1,5.56,5.56,0,0,0-1.5,2l0,.07-30.82,75.22L852.87,348a5.18,5.18,0,0,0-1.5-2.07,4.35,4.35,0,0,0-2.84-1h-5.2a2.14,2.14,0,0,0-2,3l37.48,90.82a2.14,2.14,0,0,0,2,1.32h5.84a2.14,2.14,0,0,0,2-1.32l37.48-90.82a2.14,2.14,0,0,0-2-3Z"/><path class="cls-1" d="M994.28,345H939.86a2.14,2.14,0,0,0-2.14,2.14v90.82a2.14,2.14,0,0,0,2.14,2.14h54.42a2.14,2.14,0,0,0,2.15-2.14v-5.46a2.14,2.14,0,0,0-2.15-2.14H948.61V396.76h37.65a2.14,2.14,0,0,0,2.14-2.14v-5.33a2.14,2.14,0,0,0-2.14-2.14H948.61V354.72h45.67a2.14,2.14,0,0,0,2.15-2.14v-5.46A2.14,2.14,0,0,0,994.28,345Z"/><path class="cls-1" d="M1052.15,397.53a34.83,34.83,0,0,0,7-2.21,29.67,29.67,0,0,0,8.74-5.74,24.45,24.45,0,0,0,5.66-8.26,26.69,26.69,0,0,0,2-10.32c0-8.49-2.89-15.05-8.59-19.5-5.54-4.33-13.89-6.52-24.81-6.52h-23.17a2.14,2.14,0,0,0-2.14,2.14v90.82a2.14,2.14,0,0,0,2.14,2.14h6.55a2.14,2.14,0,0,0,2.14-2.14V399h9.73a7.83,7.83,0,0,1,3,.38,4.58,4.58,0,0,1,1.56,1.38L1071,437.59a6.54,6.54,0,0,0,2.13,1.86,5.88,5.88,0,0,0,2.76.63h5.71a2.14,2.14,0,0,0,1.68-3.47Zm-24.53-43.07h14.48c7.58,0,13.37,1.44,17.21,4.27s5.49,6.86,5.49,12.65a18.3,18.3,0,0,1-1.54,7.65,15.88,15.88,0,0,1-4.44,5.71,21.45,21.45,0,0,1-7.36,3.75,35.32,35.32,0,0,1-10.19,1.35h-13.65Z"/><path class="cls-1" d="M1141.5,394.1a32.38,32.38,0,0,0-7.81-4.57c-2.76-1.15-5.64-2.22-8.54-3.17s-5.62-1.88-8.34-2.84a31.53,31.53,0,0,1-6.84-3.34,15.65,15.65,0,0,1-4.55-4.51,11.75,11.75,0,0,1-1.62-6.47,15.51,15.51,0,0,1,1.16-5.93,14.32,14.32,0,0,1,3.37-4.91,16,16,0,0,1,5.58-3.39,26.23,26.23,0,0,1,15.58-.19,26.56,26.56,0,0,1,5.21,2.45,27.68,27.68,0,0,1,3.3,2.42,5.43,5.43,0,0,0,3.58,1.74,3.93,3.93,0,0,0,3.57-2.23h0l1.54-2.95a2.15,2.15,0,0,0-.38-2.51,32.8,32.8,0,0,0-11-7.34,36.3,36.3,0,0,0-13.49-2.4,32.42,32.42,0,0,0-12,2.11,27.42,27.42,0,0,0-8.95,5.65,24.07,24.07,0,0,0-5.57,8.21,25.09,25.09,0,0,0-1.9,9.6,23.73,23.73,0,0,0,2.19,10.69,21.79,21.79,0,0,0,5.74,7.18,31.31,31.31,0,0,0,7.83,4.59c2.76,1.12,5.64,2.16,8.56,3.07s5.63,1.81,8.33,2.74a31.57,31.57,0,0,1,6.83,3.28,14.86,14.86,0,0,1,4.53,4.54,12.66,12.66,0,0,1,1.63,6.79,20.38,20.38,0,0,1-1.39,7.52,16.85,16.85,0,0,1-4,5.95,19,19,0,0,1-6.45,4,24.65,24.65,0,0,1-8.87,1.49,27,27,0,0,1-6.49-.71,26.67,26.67,0,0,1-5.06-1.75,22.88,22.88,0,0,1-3.83-2.23c-1.15-.84-2.14-1.62-2.94-2.32s-1.6-1.39-2.2-1.91a4.49,4.49,0,0,0-2.87-1.28,4.33,4.33,0,0,0-3.47,1.76l-.14.19-1.79,2.82a2.14,2.14,0,0,0,.2,2.57,38.77,38.77,0,0,0,12,9.2,37,37,0,0,0,16.41,3.4,35.52,35.52,0,0,0,13.12-2.3,28.85,28.85,0,0,0,9.83-6.35,27.42,27.42,0,0,0,6.17-9.5,31.8,31.8,0,0,0,2.1-11.53,20.83,20.83,0,0,0-7.94-17.33Z"/><rect class="cls-1" x="1167.88" y="344.98" width="10.89" height="95.1" rx="2.14"/><path class="cls-1" d="M1277.87,357.34a41.29,41.29,0,0,0-14.41-9.92A48,48,0,0,0,1245,344a47.14,47.14,0,0,0-18.35,3.51,41.76,41.76,0,0,0-14.4,9.91,45.15,45.15,0,0,0-9.34,15.35,60.94,60.94,0,0,0,0,39.62,45.15,45.15,0,0,0,9.34,15.35,41.32,41.32,0,0,0,14.41,9.88,50.57,50.57,0,0,0,36.82,0,41.42,41.42,0,0,0,14.4-9.88,44.43,44.43,0,0,0,9.31-15.36,61.4,61.4,0,0,0,0-39.6A44.82,44.82,0,0,0,1277.87,357.34ZM1245,431.05a36.49,36.49,0,0,1-14-2.6,30.17,30.17,0,0,1-10.79-7.49,34.52,34.52,0,0,1-7.06-12.07,53.85,53.85,0,0,1,0-32.75,34.63,34.63,0,0,1,7.06-12.1,30.44,30.44,0,0,1,10.8-7.53,36.25,36.25,0,0,1,14-2.63,36.87,36.87,0,0,1,14.14,2.63,29.78,29.78,0,0,1,10.76,7.52,34.93,34.93,0,0,1,7,12.1,54.73,54.73,0,0,1,0,32.77,35,35,0,0,1-7,12.07,29.61,29.61,0,0,1-10.75,7.48A37.07,37.07,0,0,1,1245,431.05Z"/><path class="cls-1" d="M1381.05,345h-5.77a2.14,2.14,0,0,0-2.15,2.14v73.21l-54.74-73.27a5,5,0,0,0-1.94-1.67h0a5.63,5.63,0,0,0-2.27-.4H1311a2.14,2.14,0,0,0-2.14,2.14v90.82a2.14,2.14,0,0,0,2.14,2.14h5.72a2.14,2.14,0,0,0,2.14-2.14V364.52l55,73.36a4.86,4.86,0,0,0,4.13,2.2h3.14a2.14,2.14,0,0,0,2.14-2.14V347.12A2.14,2.14,0,0,0,1381.05,345Z"/><path class="cls-1" d="M1463.72,345h-54.43a2.14,2.14,0,0,0-2.14,2.14v90.82a2.14,2.14,0,0,0,2.14,2.14h54.43a2.14,2.14,0,0,0,2.14-2.14v-5.46a2.14,2.14,0,0,0-2.14-2.14H1418V396.76h37.66a2.14,2.14,0,0,0,2.14-2.14v-5.33a2.14,2.14,0,0,0-2.14-2.14H1418V354.72h45.68a2.14,2.14,0,0,0,2.14-2.14v-5.46A2.14,2.14,0,0,0,1463.72,345Z"/><path class="cls-1" d="M1534.39,401.1a21.84,21.84,0,0,0-5.74-7,32.38,32.38,0,0,0-7.81-4.57c-2.76-1.15-5.63-2.22-8.54-3.17s-5.61-1.88-8.34-2.84a31.22,31.22,0,0,1-6.83-3.34,15.57,15.57,0,0,1-4.56-4.51,11.75,11.75,0,0,1-1.61-6.47,15.69,15.69,0,0,1,1.15-5.93,14.46,14.46,0,0,1,3.37-4.91,16,16,0,0,1,5.58-3.39,26.23,26.23,0,0,1,15.58-.19,26.56,26.56,0,0,1,5.21,2.45,27.68,27.68,0,0,1,3.3,2.42,5.45,5.45,0,0,0,3.59,1.74,3.91,3.91,0,0,0,3.56-2.23h0l1.54-2.95a2.14,2.14,0,0,0-.38-2.51,32.6,32.6,0,0,0-11-7.34A36.25,36.25,0,0,0,1509,344a32.35,32.35,0,0,0-12,2.11,27.36,27.36,0,0,0-9,5.65,24.21,24.21,0,0,0-5.57,8.21,25.08,25.08,0,0,0-1.89,9.6,23.59,23.59,0,0,0,2.19,10.69,21.54,21.54,0,0,0,5.74,7.18,31,31,0,0,0,7.83,4.59c2.75,1.12,5.63,2.16,8.56,3.07s5.62,1.81,8.32,2.74a31.35,31.35,0,0,1,6.83,3.28,14.75,14.75,0,0,1,4.53,4.54,12.66,12.66,0,0,1,1.63,6.79,20.38,20.38,0,0,1-1.39,7.52,16.83,16.83,0,0,1-4,5.95,19.24,19.24,0,0,1-6.45,4,24.71,24.71,0,0,1-8.88,1.49,26.94,26.94,0,0,1-6.48-.71,26.54,26.54,0,0,1-5.07-1.75,23.29,23.29,0,0,1-3.83-2.23c-1.15-.84-2.14-1.62-2.94-2.32s-1.6-1.39-2.2-1.91a4.49,4.49,0,0,0-2.87-1.28,4.33,4.33,0,0,0-3.47,1.76,1.27,1.27,0,0,0-.13.19l-1.8,2.82a2.15,2.15,0,0,0,.2,2.57,38.77,38.77,0,0,0,12,9.2,37,37,0,0,0,16.41,3.4,35.48,35.48,0,0,0,13.12-2.3,29,29,0,0,0,9.84-6.35,27.39,27.39,0,0,0,6.16-9.5,31.8,31.8,0,0,0,2.1-11.53A22.25,22.25,0,0,0,1534.39,401.1Z"/><path class="cls-1" d="M829.11,604.78l-7-1.8a6.78,6.78,0,0,0-8,4c-3.71,9.14-8.09,16.61-12.33,21l-.1.11c-3.3,3.58-4.41,4.79-15,4.79-.91,0-9.56-.12-14.21-.18l-3.45,0c-5.85-.1-6.88-.89-7-1-.3-.33-1-1.91-1-9.35V530.79c0-2.79,0-11.31,1.5-12.81,1.34-1.34,8-2,12.87-2.49a6.78,6.78,0,0,0,6.1-6.75v-6.3a6.78,6.78,0,0,0-6.77-6.78H714.46a6.79,6.79,0,0,0-6.78,6.78v6.3a6.78,6.78,0,0,0,6.11,6.75c4.52.45,11.36,1.13,12.69,2.5s1.46,9.71,1.46,12.8v89.33c0,3.68,0,11.32-1.41,12.69-1.58,1.54-9.51,2.32-14.76,2.84a6.77,6.77,0,0,0-6.11,6.75v6.3a6.78,6.78,0,0,0,6.78,6.78H817.07a6.79,6.79,0,0,0,6.45-4.7c2.23-6.93,9.09-30.59,10.55-38.15A6.78,6.78,0,0,0,829.11,604.78Z"/><path class="cls-1" d="M1010.87,635.66c-7.51-.85-10.33-1.59-12.06-3.18-2.28-2.09-4.41-7.09-7.53-15.58-18-49.47-32-87.59-43.88-119.95a6.79,6.79,0,0,0-7.61-4.32l-7.2,1.35a6.8,6.8,0,0,0-5.06,4.18L880.94,616.31c-3.6,9.27-6.08,13.92-8.57,16.06-2.14,1.85-5.18,2.48-11.61,3.3a6.78,6.78,0,0,0-5.93,6.73v6.3a6.79,6.79,0,0,0,6.78,6.78h52a6.79,6.79,0,0,0,6.78-6.78v-6.3a6.78,6.78,0,0,0-6-6.73c-3-.37-10.71-1.31-12.8-2.52,0-.73.18-2.63,1.74-7.24,1.84-5.38,3.75-10.6,5.78-16.12q1.32-3.62,2.7-7.42h39c2.12,6.15,4.15,11.69,6,16.69s3.34,9.11,4.59,12.88c0,.07,0,.13.07.2.32.87.53,1.52.66,2a49.68,49.68,0,0,1-8.4,1.53,6.77,6.77,0,0,0-6,6.73v6.3a6.78,6.78,0,0,0,6.78,6.78h55.57a6.78,6.78,0,0,0,6.78-6.78v-6.3A6.78,6.78,0,0,0,1010.87,635.66Zm-90.62-56.07c3.94-10.42,8-21.22,11.64-31l11,31Z"/><path class="cls-1" d="M1260.09,574h-57.83a6.78,6.78,0,0,0-6.78,6.78v6.52a6.78,6.78,0,0,0,6.29,6.76c4.85.36,13.89,1,15.88,2.72,1.23,1.06,1.23,7.55,1.23,10.32v18.45c0,6-1,6.68-4.06,8.41-3,1.49-8.78,3-15.94,3-40.83,0-55.32-34.77-55.32-64.55,0-36.33,18.66-58,49.92-58,6.27,0,14.66,1.14,18.7,2.55l.09,0c10.46,3.49,16.38,8.48,21.72,27.37a6.78,6.78,0,0,0,7.85,4.8l6.75-1.35a6.79,6.79,0,0,0,5.4-7.5c-1.8-14.15-2.9-27.74-3.34-35.74a6.77,6.77,0,0,0-5.69-6.32c-1.23-.2-3-.55-5-1a208.69,208.69,0,0,0-42.93-4.77c-24.24,0-46.65,7.72-63.11,21.73-17.9,15.24-27.37,36.29-27.37,60.88,0,24.39,8.3,45.25,24,60.33,15.94,15.31,38.39,23.4,64.91,23.4,17.12,0,33.53-3.83,46.71-6.91l5.86-1.36a6.77,6.77,0,0,0,5.17-7.84c-1.09-5.89-1.24-13.49-1.24-20.14V603.7c0-1.86,0-6.68.52-8,1.35-.77,6.65-1.46,8.42-1.69a6.77,6.77,0,0,0,5.91-6.72v-6.52A6.77,6.77,0,0,0,1260.09,574Z"/><path class="cls-1" d="M1436.17,637.64c-3.67-1-7.8-2.64-13.15-8.38-4.83-5.25-8.84-10.49-17.16-22.41-5-7.54-11.75-17.94-16.45-25.53,17.16-9.53,26.18-23.76,26.18-41.53,0-15.27-6.54-27.84-18.41-35.39-9.33-6.12-21.2-8.74-39.67-8.74h-57.38a6.79,6.79,0,0,0-6.78,6.78v6.3a6.78,6.78,0,0,0,6,6.74c5.13.58,11.51,1.31,12.79,2.58,1.45,1.44,1.45,9.77,1.45,12.51v89.78c0,3.42,0,11.44-1.25,12.76s-8.28,2-12.95,2.55a6.78,6.78,0,0,0-6.05,6.74v6.3a6.79,6.79,0,0,0,6.78,6.78h60.08a6.78,6.78,0,0,0,6.77-6.78v-6.3a6.77,6.77,0,0,0-6.1-6.75c-4.56-.45-11.45-1.14-12.85-2.55s-1.52-9.69-1.52-12.75V591.8h1.1c9.8,0,10.24.71,13.15,5.37,2,3.23,4.11,6.65,6.31,10.26,5.64,9.25,11.46,18.82,17.53,27.19,10.71,15.09,21.22,20.89,40.11,22.19l1,.07c2.57.21,5,.4,7.84.4a6.78,6.78,0,0,0,6.71-5.82l.9-6.3A6.78,6.78,0,0,0,1436.17,637.64Zm-89.66-115.4a21.89,21.89,0,0,1,.28-4.38c.73-.24,2.86-.76,7.57-.76,12.1,0,26.52,4.52,26.52,26.07,0,10.42-3,17.28-9.64,22.24l-.32.24c-4.17,3.51-10.08,4.94-20.39,4.94h-4Z"/><path class="cls-1" d="M1608.69,635.66c-7.51-.85-10.33-1.59-12.07-3.18-2.27-2.09-4.4-7.09-7.52-15.58-18-49.47-32-87.59-43.89-119.95a6.78,6.78,0,0,0-7.61-4.32l-7.2,1.35a6.77,6.77,0,0,0-5.05,4.18l-46.59,118.15c-3.6,9.27-6.08,13.92-8.57,16.06-2.14,1.85-5.18,2.48-11.62,3.3a6.78,6.78,0,0,0-5.92,6.73v6.3a6.78,6.78,0,0,0,6.78,6.78h52a6.78,6.78,0,0,0,6.78-6.78v-6.3a6.77,6.77,0,0,0-6-6.73c-3-.37-10.7-1.31-12.79-2.52,0-.73.18-2.63,1.74-7.24,1.84-5.38,3.75-10.6,5.77-16.12q1.33-3.62,2.71-7.42h39c2.12,6.15,4.15,11.69,6,16.69s3.34,9.11,4.6,12.88c0,.07,0,.13.07.2.32.87.53,1.52.66,2a49.91,49.91,0,0,1-8.4,1.53,6.77,6.77,0,0,0-6,6.73v6.3a6.78,6.78,0,0,0,6.77,6.78h55.58a6.79,6.79,0,0,0,6.78-6.78v-6.3A6.78,6.78,0,0,0,1608.69,635.66Zm-90.62-56.07c3.93-10.42,8-21.22,11.63-31l11,31Z"/><path class="cls-1" d="M1794.91,495.66h-55.58a6.78,6.78,0,0,0-6.78,6.78v6.3a6.78,6.78,0,0,0,6.36,6.77c17,1.06,17.19,3.41,17.51,8.09,0,.07,0,.14,0,.22.54,5.4,1.1,14,1.1,36.68v36.56l-83.44-99a6.82,6.82,0,0,0-5.19-2.41h-33.75a6.79,6.79,0,0,0-6.78,6.78v6.3a6.79,6.79,0,0,0,6.09,6.75c10.52,1.07,12.83,2.18,15.32,5.46l.15.19c2.68,3.27,3,5,3,10.55v57.38c0,17.87-.33,29-1.1,37.17v.08c-.45,5.49-.68,8.24-14,9.32a6.78,6.78,0,0,0-6.24,6.76v6.3a6.79,6.79,0,0,0,6.78,6.78H1693a6.79,6.79,0,0,0,6.78-6.78v-6.3a6.78,6.78,0,0,0-6.22-6.76c-15.73-1.31-15.84-3.94-16.06-9.71a1.34,1.34,0,0,1,0-.2c-.42-6-1.11-16.08-1.11-36.43V552l84.27,103a6.78,6.78,0,0,0,5.25,2.49h8.55a6.78,6.78,0,0,0,6.78-6.78V560.5c0-17.7.32-27.1.56-34,0-1.16.07-2.25.11-3.29.33-5.09.51-6.32,13.76-7.77a6.77,6.77,0,0,0,6-6.74v-6.3A6.78,6.78,0,0,0,1794.91,495.66Z"/><path class="cls-1" d="M1953.92,606.37l-6.75-1.8a6.8,6.8,0,0,0-7.89,3.68c-4.24,9.09-8.16,15.85-11,19l-.15.17c-3.93,4.64-4.63,5.48-15.75,5.48h-20.86c-2.08,0-6.77-.15-7.9-1.15-.26-.23-1.59-1.78-1.59-9.4v-38h18c2.8,0,9.36,0,10.88,1.39s2.74,8,3.38,11.49a6.77,6.77,0,0,0,6.67,5.57h7a6.77,6.77,0,0,0,6.78-6.77V549.69a6.79,6.79,0,0,0-2.77-5.47,6.71,6.71,0,0,0,2.28,0l6.75-1.12a6.79,6.79,0,0,0,5.65-7.2c-.9-11.92-1.79-28.59-2-34.19a6.82,6.82,0,0,0-2.29-4.81,6.74,6.74,0,0,0-5-1.67c-1.54.13-7.74.42-32.06.42H1836.3a6.78,6.78,0,0,0-6.78,6.78v6.3a6.77,6.77,0,0,0,6.15,6.75c4.16.39,10.44,1,11.63,2.27,1.57,1.72,1.57,10.74,1.57,13.71v88.88c0,3.89,0,11.14-1.42,12.56-1.75,1.74-10.57,2.41-14.81,2.73a6.77,6.77,0,0,0-6.27,6.76v6.3a6.78,6.78,0,0,0,6.78,6.78H1942.5a6.77,6.77,0,0,0,6.43-4.64c2.37-7.11,8.49-30.51,9.85-36.39A6.78,6.78,0,0,0,1953.92,606.37Zm-26.05-63.45h-7a6.79,6.79,0,0,0-6.68,5.6c-.83,4.72-1.77,10.07-3.17,11.48-1.58,1.59-8.56,1.59-10.85,1.59H1882V518.22h22c13.67,0,14.56,1.84,16.18,5.18a1.74,1.74,0,0,0,.1.19,69,69,0,0,1,6.2,15.69,6.72,6.72,0,0,0,2.55,3.74A6.48,6.48,0,0,0,1927.87,542.92Z"/><path class="cls-1" d="M2126.46,637.64c-3.67-1-7.8-2.64-13.15-8.38-4.83-5.25-8.84-10.49-17.16-22.41-5-7.54-11.75-17.94-16.45-25.53,17.16-9.53,26.18-23.76,26.18-41.53,0-15.27-6.54-27.84-18.4-35.39-9.34-6.12-21.21-8.74-39.68-8.74h-57.38a6.79,6.79,0,0,0-6.78,6.78v6.3a6.78,6.78,0,0,0,6,6.74c5.13.58,11.51,1.31,12.79,2.58,1.45,1.44,1.45,9.77,1.45,12.51v89.78c0,3.42,0,11.44-1.25,12.76s-8.28,2-13,2.55a6.78,6.78,0,0,0-6,6.74v6.3a6.79,6.79,0,0,0,6.78,6.78h60.08a6.79,6.79,0,0,0,6.78-6.78v-6.3a6.78,6.78,0,0,0-6.11-6.75c-4.56-.45-11.45-1.14-12.85-2.55s-1.52-9.69-1.52-12.75V591.8h1.1c9.8,0,10.24.71,13.15,5.37,2,3.23,4.11,6.65,6.31,10.26,5.64,9.25,11.46,18.82,17.53,27.19,10.71,15.09,21.22,20.89,40.11,22.19l1,.07c2.57.21,5,.4,7.84.4a6.78,6.78,0,0,0,6.71-5.82l.9-6.3A6.77,6.77,0,0,0,2126.46,637.64Zm-89.66-115.4a22.77,22.77,0,0,1,.28-4.38c.73-.24,2.86-.76,7.57-.76,12.1,0,26.52,4.52,26.52,26.07,0,10.42-3,17.28-9.64,22.24l-.32.24c-4.17,3.51-10.08,4.94-20.39,4.94h-4Z"/><path class="cls-1" d="M2299,635.66c-7.51-.85-10.33-1.59-12.07-3.18-2.27-2.09-4.4-7.09-7.52-15.58-18-49.47-32-87.59-43.88-119.95a6.79,6.79,0,0,0-7.61-4.32l-7.2,1.35a6.76,6.76,0,0,0-5.06,4.18l-46.59,118.15c-3.6,9.27-6.08,13.92-8.57,16.06-2.14,1.85-5.18,2.48-11.62,3.3a6.78,6.78,0,0,0-5.92,6.73v6.3a6.78,6.78,0,0,0,6.78,6.78h52a6.78,6.78,0,0,0,6.78-6.78v-6.3a6.77,6.77,0,0,0-6-6.73c-3-.37-10.7-1.31-12.79-2.52,0-.73.18-2.63,1.74-7.24,1.84-5.38,3.75-10.6,5.77-16.12q1.33-3.62,2.71-7.42h39c2.12,6.15,4.15,11.69,6,16.69s3.34,9.11,4.6,12.88c0,.07.05.13.07.2.32.87.53,1.52.66,2a49.91,49.91,0,0,1-8.4,1.53,6.77,6.77,0,0,0-6,6.73v6.3a6.78,6.78,0,0,0,6.78,6.78h55.57a6.78,6.78,0,0,0,6.78-6.78v-6.3A6.78,6.78,0,0,0,2299,635.66Zm-90.62-56.07c3.94-10.42,8-21.22,11.63-31l11,31Z"/><path class="cls-1" d="M482.34,619.51A308.37,308.37,0,0,1,598,378.47a10.64,10.64,0,0,0,3.33-12.06c-.45-1.2-.91-2.39-1.39-3.57a10.68,10.68,0,0,0-16.61-4.43A330.22,330.22,0,0,0,460.44,615.77q0,15.18,1.36,30a10.66,10.66,0,0,0,14.67,8.87l.21-.08a10.73,10.73,0,0,0,6.6-10.75Q482.35,631.78,482.34,619.51Z"/><path class="cls-1" d="M527,619a263.65,263.65,0,0,1,84.25-193.49,9.34,9.34,0,0,0,2.85-8l0-.25a10.72,10.72,0,0,0-18-6.34,282.3,282.3,0,0,0-87.77,204.91c0,1.82,0,3.63.05,5.44a9.31,9.31,0,0,0,14.8,7.3h0A9.43,9.43,0,0,0,527,620.8C527,620.19,527,619.58,527,619Z"/><path class="cls-1" d="M613.49,479.22c0-.1,0-.2,0-.3,1.31-9-10.28-13.8-15.69-6.51a239.51,239.51,0,0,0-44.56,106.84c-1.26,8.27,9.24,12.85,14.41,6.28l.17-.22a8,8,0,0,0,1.6-3.66,223.74,223.74,0,0,1,42.45-98.72A8.19,8.19,0,0,0,613.49,479.22Z"/><path class="cls-1" d="M323.54,578.73a23.84,23.84,0,0,1-1.89-4.36C321.45,576.14,321.51,578.15,323.54,578.73Z"/><path class="cls-1" d="M178.29,427.92c13.06-14.81,29.44-29.3,48.57-42.93a43.75,43.75,0,0,0,18.38-36.13c-.24-23.48,1.83-45.26,6.12-64.54a7.34,7.34,0,0,0-12-7.07,226.57,226.57,0,0,0-73.84,145.1A7.34,7.34,0,0,0,178.29,427.92Z"/><path class="cls-1" d="M450.41,282.08a43.74,43.74,0,0,0,36.13,18.38c23.48-.24,45.26,1.83,64.53,6.12a7.34,7.34,0,0,0,7.08-12A226.57,226.57,0,0,0,413,220.7a7.34,7.34,0,0,0-5.56,12.81C422.29,246.57,436.78,263,450.41,282.08Z"/><path class="cls-1" d="M204,500.58a23.5,23.5,0,0,1,23.47,23.47v12.61a54.51,54.51,0,0,0,1.8,14.67c0,.14.07.28.11.42a22.68,22.68,0,0,0,6.11,10.57c.57.55,1.14,1.14,1.71,1.74a47.46,47.46,0,0,0,16.09,11.12c3.76,1.58,7.51,3.62,9.37,6,3.15,4.06,9.59,2.58,10.27-2.51,0-.13,0-.27.05-.41.65-6.06,1.38-9.8,2.5-12.89a78.37,78.37,0,0,1,15-25.23,513.29,513.29,0,0,1-37-113.94,18.92,18.92,0,0,0-28.95-12.09c-22.07,14.5-40.33,29.59-53.82,44.5a18.67,18.67,0,0,0-4.71,14.87,226.63,226.63,0,0,0,9.36,41.69l0,.14a6.1,6.1,0,0,0,11.1,1C190.88,508.74,197.09,500.58,204,500.58Z"/><path class="cls-1" d="M294.29,346.18a513.57,513.57,0,0,1,114.89-37.4,18.85,18.85,0,0,0,12.16-28.84c-14.47-22.06-29.56-40.33-44.45-53.83a19,19,0,0,0-15.15-4.79,228.21,228.21,0,0,0-80.59,26.23,19,19,0,0,0-9.42,12.79c-4.09,19.68-5.53,43.32-4.25,69.68A18.86,18.86,0,0,0,294.29,346.18Z"/><path class="cls-1" d="M568.24,325.66h-.08c-18.24-3.09-39.5-4.09-62.88-2.95a18.79,18.79,0,0,0-16.13,26.66q7.31,15.72,13.74,32.63a11,11,0,0,0,18.73,3.16,323.65,323.65,0,0,1,49.53-47.8A6.6,6.6,0,0,0,568.24,325.66Z"/><path class="cls-1" d="M484.2,414.68c-6.65-20.44-14.09-40-22.09-58.33a37.49,37.49,0,0,0-42.5-21.63c-19.56,4.34-39.72,9.83-60.16,16.48s-39.95,14.08-58.32,22.09a37.49,37.49,0,0,0-21.63,42.5c4.34,19.56,9.83,39.72,16.48,60.15,4.8,14.77,10,29.06,15.56,42.79.4,1,1,2.3,1.61,3.8,1.82-.95,3.67-1.85,5.58-2.65L403.3,484.3a38.06,38.06,0,0,1,40.46,6.75A39.14,39.14,0,0,1,448.4,496a7.72,7.72,0,0,0,13.47-2.26,319.2,319.2,0,0,1,22.74-53.8,24.21,24.21,0,0,0,1.71-18.61C485.62,419.1,484.92,416.89,484.2,414.68Z"/><path class="cls-1" d="M321.65,574.37a23.84,23.84,0,0,0,1.89,4.36C321.51,578.15,321.45,576.14,321.65,574.37Z"/><path class="cls-1" d="M434.22,524.39a16.72,16.72,0,0,0-22.52-20.12l-84.57,35.59a56.66,56.66,0,0,0-31.28,32.9,42.73,42.73,0,0,0-1.33,7.84,37.65,37.65,0,0,1-37.39,33.69h-12a4,4,0,0,1-4-4v-7.46a2.06,2.06,0,0,1,2.06-2.06,3.06,3.06,0,0,0,3.06-3.06v-1.31a3.07,3.07,0,0,0-3.06-3.07H225.29a3.06,3.06,0,0,1-3.07-3.07V579.8a2.84,2.84,0,0,0-2.83-2.84h-9.06a1.89,1.89,0,0,1-1.89-1.88v-17.5a1.69,1.69,0,0,0-1.69-1.69,1,1,0,0,1-.95-1V524.05a1.8,1.8,0,1,0-3.59,0v30.88a1,1,0,0,1-1,1,1.69,1.69,0,0,0-1.69,1.69v17.5a1.88,1.88,0,0,1-1.88,1.88h-9.06a2.84,2.84,0,0,0-2.84,2.84v10.42a3.06,3.06,0,0,1-3.07,3.07H164.88a3.07,3.07,0,0,0-3.07,3.07v1.31a3.06,3.06,0,0,0,3.07,3.06h0a2.05,2.05,0,0,1,2.05,2.06v7.46a4,4,0,0,1-4,4,12.19,12.19,0,0,0-11.83,9.26c-.9,3.67-1.67,7.38-2.75,11l-2.83,9.52A8.85,8.85,0,0,0,154,655.45h67.19v0H418a7.56,7.56,0,0,0,6.59-11.26l-7.78-13.85A43.78,43.78,0,0,1,413,596.61ZM326,578.82c-5.62.74-4.34-3.93-4.07-6.18.93-7.8,2.28-9,7.66-9.92,3.73-.66,3.4,3.56,3.47,5.13C333.44,576.88,331.85,578.05,326,578.82Zm20.48-9.41c-5.62.73-4.34-3.94-4.07-6.19.93-7.79,2.28-9,7.66-9.91,3.73-.66,3.4,3.55,3.47,5.12C353.92,567.46,352.33,568.64,346.44,569.41Zm20.48-9c-5.62.74-4.34-3.93-4.07-6.18.93-7.8,2.28-9,7.66-9.92,3.73-.66,3.4,3.56,3.47,5.13C374.4,558.49,372.81,559.66,366.92,560.43Zm20.48-8.12c-5.62.73-4.34-3.94-4.07-6.18.93-7.8,2.28-9,7.66-9.92,3.73-.66,3.4,3.56,3.47,5.13C394.88,550.36,393.29,551.54,387.4,552.31Z"/></svg>