<svg id="Capa_1" data-name="Capa 1" xmlns="http://www.w3.org/2000/svg" viewBox="0 0 2479 880"><defs><style>.cls-1{fill:#6e9033;}.cls-2{fill:#4062a1;}.cls-3{fill:#363559;}.cls-4{fill:#cfcfcf;}</style></defs><title>recursos LOGO LA GRANERA SVG</title><path class="cls-1" d="M454.85,617.16A252.26,252.26,0,0,1,549.49,420a8.72,8.72,0,0,0,2.73-9.86c-.37-1-.75-2-1.14-2.93a8.74,8.74,0,0,0-13.59-3.62A270.14,270.14,0,0,0,436.94,614.1q0,12.42,1.11,24.56a8.73,8.73,0,0,0,12,7.26l.16-.07a8.79,8.79,0,0,0,5.41-8.8Q454.87,627.21,454.85,617.16Z"/><path class="cls-1" d="M491.37,616.72a215.66,215.66,0,0,1,68.91-158.28,7.62,7.62,0,0,0,2.33-6.56l0-.21a8.77,8.77,0,0,0-14.75-5.18A230.89,230.89,0,0,0,476,614.1c0,1.49,0,3,0,4.45a7.61,7.61,0,0,0,12.1,6h0a7.69,7.69,0,0,0,3.18-6.3Z"/><path class="cls-1" d="M562.13,502.4l0-.24c1.07-7.36-8.41-11.29-12.84-5.32a195.94,195.94,0,0,0-36.44,87.39,6.64,6.64,0,0,0,11.78,5.13l.15-.18a6.59,6.59,0,0,0,1.3-3,183.19,183.19,0,0,1,34.72-80.75A6.54,6.54,0,0,0,562.13,502.4Z"/><path class="cls-2" d="M325,583.81a18.86,18.86,0,0,1-1.54-3.57C323.25,581.68,323.3,583.33,325,583.81Z"/><path class="cls-2" d="M206.14,460.44a234.77,234.77,0,0,1,39.73-35.12,35.75,35.75,0,0,0,15-29.55,234.17,234.17,0,0,1,5-52.79,6,6,0,0,0-9.84-5.79,185.33,185.33,0,0,0-60.4,118.7A6,6,0,0,0,206.14,460.44Z"/><path class="cls-2" d="M428.74,341.14a35.75,35.75,0,0,0,29.55,15,234.17,234.17,0,0,1,52.79,5,6,6,0,0,0,5.79-9.84,185.31,185.31,0,0,0-118.7-60.4,6,6,0,0,0-4.55,10.47A234.77,234.77,0,0,1,428.74,341.14Z"/><path class="cls-2" d="M227.18,519.88a19.21,19.21,0,0,1,19.19,19.19v10.32a44.94,44.94,0,0,0,1.47,12c0,.11.07.23.1.34a18.37,18.37,0,0,0,5,8.65c.46.45.93.93,1.4,1.42a38.59,38.59,0,0,0,13.16,9.1c3.07,1.29,6.14,3,7.66,4.92a4.67,4.67,0,0,0,8.4-2.06c0-.11,0-.22,0-.33a45,45,0,0,1,2-10.55A64,64,0,0,1,298,552.25,419.91,419.91,0,0,1,267.72,459,15.48,15.48,0,0,0,244,449.15C226,461,211,473.36,200,485.55a15.29,15.29,0,0,0-3.85,12.17,185.36,185.36,0,0,0,7.65,34.1l0,.12a5,5,0,0,0,9.08.84C216.44,526.56,221.53,519.88,227.18,519.88Z"/><path class="cls-2" d="M301,393.58A420,420,0,0,1,395,363a15.43,15.43,0,0,0,9.95-23.6c-11.84-18-24.18-33-36.36-44a15.54,15.54,0,0,0-12.39-3.92,186.42,186.42,0,0,0-65.92,21.46,15.53,15.53,0,0,0-7.71,10.46c-3.35,16.1-4.53,35.44-3.48,57A15.43,15.43,0,0,0,301,393.58Z"/><path class="cls-2" d="M525.12,376.8h-.06c-14.93-2.53-32.31-3.35-51.44-2.42a15.38,15.38,0,0,0-13.19,21.81q6,12.87,11.23,26.69A9,9,0,0,0,487,425.46a264.87,264.87,0,0,1,40.52-39.11A5.39,5.39,0,0,0,525.12,376.8Z"/><path class="cls-2" d="M456.38,449.61c-5.44-16.72-11.52-32.69-18.07-47.71a30.68,30.68,0,0,0-34.77-17.69c-16,3.55-32.49,8-49.2,13.47s-32.69,11.52-47.71,18.07a30.66,30.66,0,0,0-17.69,34.77c3.55,16,8,32.49,13.47,49.2q5.91,18.12,12.74,35c.32.8.78,1.88,1.31,3.11,1.49-.77,3-1.51,4.56-2.16l69.18-29.11a31.46,31.46,0,0,1,36.9,9.56,6.31,6.31,0,0,0,11-1.86,261.93,261.93,0,0,1,18.6-44,19.74,19.74,0,0,0,1.4-15.21C457.54,453.23,457,451.42,456.38,449.61Z"/><path class="cls-2" d="M323.42,580.24a18.86,18.86,0,0,0,1.54,3.57C323.3,583.33,323.25,581.68,323.42,580.24Z"/><path class="cls-3" d="M415.5,539.35a13.67,13.67,0,0,0-18.43-16.45L327.9,552a46.31,46.31,0,0,0-25.59,26.91,35,35,0,0,0-1.09,6.42,30.79,30.79,0,0,1-30.58,27.55H260.8a3.3,3.3,0,0,1-3.3-3.3v-6.11a1.68,1.68,0,0,1,1.68-1.68,2.51,2.51,0,0,0,2.51-2.51v-1.06a2.51,2.51,0,0,0-2.51-2.51H244.59a2.51,2.51,0,0,1-2.51-2.51v-8.53a2.32,2.32,0,0,0-2.32-2.32h-7.41a1.54,1.54,0,0,1-1.54-1.54V566.5a1.38,1.38,0,0,0-1.38-1.38.78.78,0,0,1-.78-.79V539.07a1.47,1.47,0,0,0-2.94,0v25.26a.78.78,0,0,1-.78.79,1.38,1.38,0,0,0-1.39,1.38v14.32a1.54,1.54,0,0,1-1.54,1.54h-7.41a2.31,2.31,0,0,0-2.31,2.32v8.53a2.52,2.52,0,0,1-2.52,2.51H195.17a2.51,2.51,0,0,0-2.51,2.51v1.06a2.51,2.51,0,0,0,2.51,2.51h0a1.69,1.69,0,0,1,1.69,1.68v6.11a3.31,3.31,0,0,1-3.31,3.3,10,10,0,0,0-9.68,7.57c-.74,3-1.37,6-2.25,9l-2.31,7.78a7.23,7.23,0,0,0,6.94,9.31h55v0h161a6.18,6.18,0,0,0,5.39-9.2L401.26,626a35.82,35.82,0,0,1-3.12-27.61Zm-88.56,44.53c-4.6.6-3.55-3.22-3.33-5.06.76-6.37,1.86-7.33,6.26-8.11,3.05-.54,2.79,2.91,2.84,4.2C333.06,582.29,331.76,583.25,326.94,583.88Zm16.75-7.7c-4.6.6-3.55-3.22-3.33-5.06.76-6.38,1.86-7.34,6.26-8.11,3.06-.54,2.79,2.91,2.85,4.19C349.81,574.58,348.51,575.55,343.69,576.18Zm16.75-7.34c-4.6.6-3.55-3.22-3.33-5.06.77-6.38,1.87-7.34,6.27-8.11,3.05-.54,2.79,2.91,2.84,4.19C366.57,567.24,365.26,568.21,360.44,568.84Zm16.76-6.65c-4.6.6-3.55-3.22-3.33-5.06.76-6.37,1.86-7.33,6.26-8.11,3.05-.54,2.79,2.91,2.84,4.2C383.32,560.6,382,561.56,377.2,562.19Z"/><rect class="cls-4" x="648.28" y="329.1" width="16.68" height="58.56"/><path class="cls-4" d="M715.16,359.78l-22.15-28a11.64,11.64,0,0,0-1.14-1.21,5.07,5.07,0,0,0-1.37-.92,5.22,5.22,0,0,0-1.56-.44,12.77,12.77,0,0,0-1.65-.09h-8.64v58.56h15.11V357l22,27.76a7.24,7.24,0,0,0,2.7,2.24,8.08,8.08,0,0,0,3.27.62h8.57V329.1H715.16Z"/><path class="cls-4" d="M781.42,330.35a6,6,0,0,0-2.11,2.79l-10.5,29.25c-.27.77-.55,1.58-.82,2.43-.3-.86-.59-1.68-.87-2.44l-10.58-29.25a6,6,0,0,0-2.2-2.92,6.48,6.48,0,0,0-3.85-1.11h-13.1l23.47,58.56H775l23.48-58.56H785.28A6.14,6.14,0,0,0,781.42,330.35Z"/><polygon class="cls-4" points="805.59 387.66 844.69 387.66 844.69 373.97 822.27 373.97 822.27 364.9 839.44 364.9 839.44 351.59 822.27 351.59 822.27 342.78 844.69 342.78 844.69 329.1 805.59 329.1 805.59 387.66"/><path class="cls-4" d="M892.16,365.65a11.66,11.66,0,0,0-2.07-2.52,18.55,18.55,0,0,0,2-1.34,18.07,18.07,0,0,0,3.86-4,17.07,17.07,0,0,0,2.39-4.93,19.27,19.27,0,0,0,.8-5.59,19,19,0,0,0-1.34-7.18,14.88,14.88,0,0,0-4.42-5.92,21,21,0,0,0-7.52-3.76,38.32,38.32,0,0,0-10.66-1.3H855.45v58.56h16.6V367.45h1.26a2.85,2.85,0,0,1,1.31.2,2,2,0,0,1,.65.76l9.08,15.86a6.77,6.77,0,0,0,6.28,3.39h15Zm-20.11-23.13h3.13c2.78,0,4.78.52,6,1.54a5.13,5.13,0,0,1,1.66,4.14,8.54,8.54,0,0,1-.42,2.73,4.9,4.9,0,0,1-1.21,1.95,6.11,6.11,0,0,1-2.26,1.36,11.12,11.12,0,0,1-3.74.54h-3.13Z"/><path class="cls-2" d="M775.51,547.72l-7.39-1.91a7.2,7.2,0,0,0-8.46,4.26c-3.93,9.7-8.57,17.61-13.07,22.29l-.11.12c-3.49,3.79-4.67,5.07-15.94,5.07-1,0-10.14-.12-15.07-.19l-3.65,0c-6.21-.11-7.3-1-7.4-1-.31-.35-1-2-1-9.91V469.28c0-3,0-12,1.59-13.59,1.42-1.42,8.49-2.12,13.65-2.64a7.19,7.19,0,0,0,6.47-7.15v-6.68a7.19,7.19,0,0,0-7.19-7.19H654a7.19,7.19,0,0,0-7.19,7.19v6.68a7.19,7.19,0,0,0,6.48,7.15c4.79.48,12,1.21,13.45,2.66s1.54,10.29,1.54,13.57V564c0,3.89,0,12-1.49,13.45-1.67,1.63-10.08,2.46-15.64,3a7.18,7.18,0,0,0-6.48,7.15v6.68a7.18,7.18,0,0,0,7.18,7.19H762.74a7.19,7.19,0,0,0,6.84-5c2.37-7.35,9.64-32.44,11.19-40.44A7.19,7.19,0,0,0,775.51,547.72Z"/><path class="cls-2" d="M968.22,580.46c-8-.9-11-1.68-12.79-3.37-2.41-2.21-4.67-7.52-8-16.52-19.1-52.45-33.89-92.86-46.53-127.17a7.18,7.18,0,0,0-8.06-4.58l-7.64,1.43a7.18,7.18,0,0,0-5.36,4.43L830.47,560c-3.82,9.82-6.45,14.75-9.09,17-2.27,2-5.49,2.64-12.32,3.5a7.19,7.19,0,0,0-6.28,7.13v6.68a7.19,7.19,0,0,0,7.19,7.19h55.11a7.18,7.18,0,0,0,7.18-7.19V587.6a7.18,7.18,0,0,0-6.31-7.13c-3.18-.39-11.35-1.39-13.57-2.67,0-.77.19-2.79,1.84-7.68,1.95-5.7,4-11.24,6.13-17.09.93-2.56,1.89-5.17,2.86-7.86h41.32c2.25,6.52,4.4,12.39,6.35,17.69s3.54,9.66,4.87,13.66c0,.07,0,.14.07.21.35.92.56,1.61.7,2.12a52.53,52.53,0,0,1-8.9,1.62,7.18,7.18,0,0,0-6.31,7.13v6.68a7.18,7.18,0,0,0,7.18,7.19h58.93a7.18,7.18,0,0,0,7.18-7.19V587.6A7.18,7.18,0,0,0,968.22,580.46ZM872.14,521c4.18-11.06,8.47-22.51,12.34-32.88L896.16,521Z"/><path class="cls-1" d="M1232.44,515.05h-61.31a7.18,7.18,0,0,0-7.18,7.19v6.92a7.18,7.18,0,0,0,6.66,7.16c5.15.38,14.73,1.08,16.84,2.89,1.31,1.12,1.31,8,1.31,10.94v19.56c0,6.34-1.09,7.08-4.31,8.92-3.23,1.57-9.31,3.22-16.9,3.22-43.29,0-58.65-36.87-58.65-68.44,0-38.52,19.79-61.52,52.93-61.52,6.65,0,15.54,1.22,19.82,2.71l.09,0c11.1,3.7,17.38,9,23,29a7.19,7.19,0,0,0,8.33,5.09l7.15-1.43a7.18,7.18,0,0,0,5.72-7.95c-1.9-15-3.07-29.41-3.53-37.89a7.18,7.18,0,0,0-6-6.71c-1.31-.21-3.14-.58-5.25-1a221,221,0,0,0-45.51-5.06c-25.71,0-49.47,8.18-66.92,23-19,16.15-29,38.47-29,64.54,0,25.87,8.79,48,25.44,64,16.9,16.24,40.7,24.82,68.82,24.82,18.15,0,35.54-4.07,49.52-7.33,2.15-.5,4.22-1,6.21-1.44a7.17,7.17,0,0,0,5.48-8.32c-1.15-6.24-1.31-14.29-1.31-21.35v-20c0-2,0-7.08.55-8.49,1.44-.83,7-1.55,8.93-1.8a7.18,7.18,0,0,0,6.27-7.12v-6.92A7.19,7.19,0,0,0,1232.44,515.05Z"/><path class="cls-1" d="M1419.13,582.56c-3.89-1-8.27-2.8-13.94-8.89-5.12-5.56-9.38-11.12-18.2-23.75-5.32-8-12.46-19-17.44-27.08,18.2-10.1,27.76-25.19,27.76-44,0-16.2-6.93-29.52-19.51-37.53-9.9-6.49-22.48-9.26-42.07-9.26H1274.9a7.19,7.19,0,0,0-7.19,7.19v6.68a7.18,7.18,0,0,0,6.37,7.14c5.44.62,12.2,1.39,13.56,2.74,1.54,1.52,1.54,10.36,1.54,13.26v95.18c0,3.64,0,12.14-1.33,13.54s-8.77,2.16-13.73,2.7a7.17,7.17,0,0,0-6.41,7.14v6.68a7.19,7.19,0,0,0,7.19,7.19h63.69a7.19,7.19,0,0,0,7.19-7.19V587.6a7.19,7.19,0,0,0-6.47-7.15c-4.84-.48-12.15-1.21-13.62-2.71-1.62-1.63-1.62-10.26-1.62-13.52V534h1.16c10.39,0,10.87.76,14,5.7,2.15,3.42,4.36,7,6.69,10.87,6,9.81,12.15,20,18.59,28.83,11.35,16,22.49,22.15,42.52,23.52l1.07.08c2.73.22,5.29.42,8.31.42a7.18,7.18,0,0,0,7.11-6.17l1-6.68A7.18,7.18,0,0,0,1419.13,582.56Zm-95.06-122.35a23.87,23.87,0,0,1,.3-4.65c.77-.25,3-.8,8-.8,12.83,0,28.12,4.79,28.12,27.64,0,11.05-3.15,18.32-10.22,23.57l-.34.27c-4.42,3.72-10.69,5.23-21.62,5.23h-4.26Z"/><path class="cls-1" d="M1602,580.46c-8-.9-11-1.68-12.8-3.37-2.41-2.21-4.66-7.52-8-16.52-19.1-52.45-33.89-92.86-46.53-127.17a7.18,7.18,0,0,0-8.07-4.58l-7.63,1.43a7.16,7.16,0,0,0-5.36,4.43L1464.28,560c-3.81,9.82-6.45,14.75-9.08,17-2.27,2-5.49,2.64-12.32,3.5a7.19,7.19,0,0,0-6.28,7.13v6.68a7.19,7.19,0,0,0,7.19,7.19h55.1a7.19,7.19,0,0,0,7.19-7.19V587.6a7.18,7.18,0,0,0-6.32-7.13c-3.17-.39-11.34-1.39-13.56-2.67,0-.77.19-2.79,1.84-7.68,2-5.7,4-11.24,6.12-17.09.94-2.56,1.9-5.17,2.87-7.86h41.32c2.24,6.52,4.4,12.39,6.34,17.69s3.55,9.66,4.88,13.66c0,.07,0,.14.07.21.34.92.56,1.61.7,2.12a52.51,52.51,0,0,1-8.91,1.62,7.18,7.18,0,0,0-6.31,7.13v6.68a7.19,7.19,0,0,0,7.19,7.19h58.92a7.19,7.19,0,0,0,7.19-7.19V587.6A7.19,7.19,0,0,0,1602,580.46ZM1506,521c4.17-11.06,8.46-22.51,12.34-32.88L1530,521Z"/><path class="cls-1" d="M1799.47,432h-58.92a7.19,7.19,0,0,0-7.19,7.19v6.68a7.18,7.18,0,0,0,6.74,7.17c18.07,1.13,18.23,3.62,18.56,8.58,0,.08,0,.15,0,.23.57,5.73,1.16,14.82,1.16,38.89v38.77l-88.47-104.95a7.17,7.17,0,0,0-5.49-2.56h-35.79a7.19,7.19,0,0,0-7.18,7.19v6.68a7.18,7.18,0,0,0,6.45,7.15c11.16,1.14,13.61,2.32,16.24,5.79l.16.2c2.84,3.47,3.15,5.33,3.15,11.19v60.83c0,19-.35,30.73-1.16,39.41,0,0,0,.06,0,.09-.47,5.82-.71,8.74-14.88,9.88a7.18,7.18,0,0,0-6.61,7.16v6.68a7.18,7.18,0,0,0,7.18,7.19h58a7.19,7.19,0,0,0,7.19-7.19V587.6a7.19,7.19,0,0,0-6.59-7.16c-16.68-1.39-16.79-4.18-17-10.3,0-.07,0-.14,0-.21-.44-6.37-1.18-17-1.18-38.63V491.79L1763.13,601a7.2,7.2,0,0,0,5.57,2.64h9.06a7.19,7.19,0,0,0,7.19-7.19V500.77c0-18.77.34-28.73.59-36,0-1.23.08-2.39.12-3.49.35-5.4.54-6.7,14.59-8.24a7.18,7.18,0,0,0,6.41-7.14v-6.68A7.19,7.19,0,0,0,1799.47,432Z"/><path class="cls-1" d="M1968.06,549.41l-7.15-1.91a7.19,7.19,0,0,0-8.37,3.9c-4.5,9.64-8.65,16.8-11.7,20.17l-.15.18c-4.17,4.92-4.92,5.8-16.7,5.8h-22.12c-2.2,0-7.18-.15-8.37-1.21-.29-.25-1.69-1.9-1.69-10V526.09h19.06c3,0,9.92,0,11.53,1.46s2.9,8.45,3.58,12.19a7.18,7.18,0,0,0,7.07,5.91h7.4a7.18,7.18,0,0,0,7.18-7.19V489.32a7.16,7.16,0,0,0-2.94-5.8,7.28,7.28,0,0,0,2.42,0l7.16-1.19a7.19,7.19,0,0,0,6-7.63c-1-12.64-1.9-30.31-2.14-36.24a7.19,7.19,0,0,0-7.77-6.88c-1.64.14-8.22.45-34,.45h-73a7.18,7.18,0,0,0-7.18,7.19v6.68a7.19,7.19,0,0,0,6.52,7.16c4.41.41,11.07,1,12.33,2.4,1.66,1.82,1.66,11.39,1.66,14.53v94.23c0,4.13,0,11.82-1.5,13.32-1.85,1.85-11.21,2.56-15.7,2.9a7.18,7.18,0,0,0-6.65,7.16v6.68a7.18,7.18,0,0,0,7.18,7.19H1956a7.18,7.18,0,0,0,6.82-4.92c2.51-7.54,9-32.34,10.44-38.58A7.18,7.18,0,0,0,1968.06,549.41Zm-27.61-67.28h-7.4a7.19,7.19,0,0,0-7.08,5.94c-.88,5-1.88,10.68-3.36,12.18-1.67,1.68-9.07,1.68-11.51,1.68h-19.29V456h23.35c14.49,0,15.43,1.95,17.15,5.49,0,.07.07.13.1.2a72.89,72.89,0,0,1,6.58,16.63,7.13,7.13,0,0,0,2.7,4A7.24,7.24,0,0,0,1940.45,482.13Z"/><path class="cls-1" d="M2151,582.56c-3.89-1-8.27-2.8-13.94-8.89-5.12-5.56-9.37-11.12-18.2-23.75-5.32-8-12.46-19-17.44-27.08,18.2-10.1,27.76-25.19,27.76-44,0-16.2-6.93-29.52-19.51-37.53-9.9-6.49-22.48-9.26-42.07-9.26h-60.83a7.19,7.19,0,0,0-7.19,7.19v6.68a7.18,7.18,0,0,0,6.37,7.14c5.44.62,12.2,1.39,13.56,2.74C2021,457.3,2021,466.14,2021,469v95.18c0,3.64,0,12.14-1.33,13.54s-8.77,2.16-13.73,2.7a7.18,7.18,0,0,0-6.41,7.14v6.68a7.19,7.19,0,0,0,7.19,7.19h63.69a7.19,7.19,0,0,0,7.19-7.19V587.6a7.19,7.19,0,0,0-6.47-7.15c-4.84-.48-12.14-1.21-13.62-2.71s-1.62-10.26-1.62-13.52V534h1.16c10.39,0,10.87.76,13.95,5.7,2.15,3.42,4.36,7,6.69,10.87,6,9.81,12.15,20,18.59,28.83,11.35,16,22.49,22.15,42.52,23.52l1.08.08c2.72.22,5.29.42,8.3.42a7.19,7.19,0,0,0,7.12-6.17l.95-6.68A7.18,7.18,0,0,0,2151,582.56Zm-95.06-122.35a23.87,23.87,0,0,1,.3-4.65c.77-.25,3-.8,8-.8,12.83,0,28.12,4.79,28.12,27.64,0,11.05-3.15,18.32-10.22,23.57l-.34.27c-4.42,3.72-10.69,5.23-21.62,5.23h-4.26Z"/><path class="cls-1" d="M2333.9,580.46c-8-.9-11-1.68-12.79-3.37-2.42-2.21-4.67-7.52-8-16.52-19.1-52.45-33.89-92.86-46.53-127.17a7.19,7.19,0,0,0-8.07-4.58l-7.63,1.43a7.18,7.18,0,0,0-5.36,4.43L2196.15,560c-3.82,9.82-6.45,14.75-9.09,17-2.27,2-5.49,2.64-12.32,3.5a7.19,7.19,0,0,0-6.28,7.13v6.68a7.19,7.19,0,0,0,7.19,7.19h55.11a7.19,7.19,0,0,0,7.18-7.19V587.6a7.18,7.18,0,0,0-6.31-7.13c-3.18-.39-11.35-1.39-13.57-2.67,0-.77.19-2.79,1.84-7.68,1.95-5.7,4-11.24,6.13-17.09.93-2.56,1.89-5.17,2.86-7.86h41.32c2.25,6.52,4.4,12.39,6.34,17.69s3.55,9.66,4.88,13.66c0,.07.05.14.07.21.34.92.56,1.61.7,2.12a52.51,52.51,0,0,1-8.91,1.62,7.18,7.18,0,0,0-6.3,7.13v6.68a7.18,7.18,0,0,0,7.18,7.19h58.93a7.18,7.18,0,0,0,7.18-7.19V587.6A7.18,7.18,0,0,0,2333.9,580.46ZM2237.82,521c4.18-11.06,8.47-22.51,12.34-32.88L2261.84,521Z"/></svg>