<svg id="Capa_1" data-name="Capa 1" xmlns="http://www.w3.org/2000/svg" viewBox="0 0 1080 1080"><defs><style>.cls-1{fill:#7d7d7d;}</style></defs><title>recursos LOGO LA GRANERA SVG</title><path class="cls-1" d="M686.29,695c0-153.65,71.17-290.65,182.33-379.9a16.77,16.77,0,0,0,5.26-19q-1.07-2.83-2.19-5.64a16.85,16.85,0,0,0-26.19-7c-118.16,95.6-193.72,241.78-193.72,405.61q0,23.92,2.14,47.31a16.8,16.8,0,0,0,23.12,14l.33-.13a16.91,16.91,0,0,0,10.41-17Q686.3,714.35,686.29,695Z"/><path class="cls-1" d="M756.64,694.14a415.51,415.51,0,0,1,132.78-305,14.74,14.74,0,0,0,4.49-12.65c0-.13,0-.26,0-.39-1.77-13.69-18.42-19.51-28.41-10A444.84,444.84,0,0,0,727.11,689.09c0,2.87,0,5.72.08,8.57a14.68,14.68,0,0,0,23.33,11.51h0A14.89,14.89,0,0,0,756.65,697C756.64,696.06,756.64,695.1,756.64,694.14Z"/><path class="cls-1" d="M893,473.88c0-.16,0-.32.07-.47,2.06-14.17-16.2-21.76-24.74-10.26A377.65,377.65,0,0,0,798.1,631.54c-2,13,14.57,20.24,22.71,9.88l.27-.34a12.56,12.56,0,0,0,2.52-5.76,352.74,352.74,0,0,1,66.9-155.59A12.78,12.78,0,0,0,893,473.88Z"/><path class="cls-1" d="M436,630.72a36.87,36.87,0,0,1-3-6.87C432.72,626.63,432.82,629.8,436,630.72Z"/><path class="cls-1" d="M207.09,393c20.59-23.34,46.4-46.19,76.55-67.66a68.93,68.93,0,0,0,29-56.94c-.39-37,2.88-71.33,9.63-101.71,2.44-10.95-10.63-18.64-19-11.15A357.05,357.05,0,0,0,186.91,384.26C185.76,395.41,199.67,401.44,207.09,393Z"/><path class="cls-1" d="M636,163.18a68.93,68.93,0,0,0,56.94,29c37-.38,71.33,2.89,101.71,9.64,10.94,2.43,18.64-10.63,11.15-19A357.05,357.05,0,0,0,577.08,66.45c-11.15-1.15-17.18,12.76-8.78,20.18C591.65,107.21,614.49,133,636,163.18Z"/><path class="cls-1" d="M247.62,507.55a37,37,0,0,1,37,37V564.4a86.2,86.2,0,0,0,2.84,23.13c.06.22.12.44.17.66a35.71,35.71,0,0,0,9.64,16.67c.89.87,1.8,1.78,2.7,2.73a74.44,74.44,0,0,0,25.36,17.53c5.92,2.48,11.82,5.7,14.75,9.48,5,6.39,15.12,4.06,16.19-4,0-.22.05-.43.08-.65,1-9.55,2.17-15.44,3.94-20.31A123.33,123.33,0,0,1,384,569.92a809.06,809.06,0,0,1-58.26-179.59,29.81,29.81,0,0,0-45.62-19.05c-34.78,22.85-63.57,46.64-84.83,70.14a29.45,29.45,0,0,0-7.42,23.43,357.55,357.55,0,0,0,14.75,65.7l.07.23a9.6,9.6,0,0,0,17.49,1.63C226.93,520.41,236.73,507.55,247.62,507.55Z"/><path class="cls-1" d="M389.91,264.21A809.26,809.26,0,0,1,571,205.26a29.72,29.72,0,0,0,19.17-45.46C567.34,125,543.57,96.25,520.1,75a29.88,29.88,0,0,0-23.87-7.55,359.52,359.52,0,0,0-127,41.34,29.91,29.91,0,0,0-14.85,20.16c-6.45,31-8.72,68.28-6.7,109.82A29.73,29.73,0,0,0,389.91,264.21Z"/><path class="cls-1" d="M821.67,231.87l-.11,0c-28.76-4.87-62.26-6.45-99.12-4.65a29.62,29.62,0,0,0-25.42,42q11.52,24.8,21.65,51.43a17.34,17.34,0,0,0,29.53,5,510.47,510.47,0,0,1,78.07-75.34A10.39,10.39,0,0,0,821.67,231.87Z"/><path class="cls-1" d="M689.22,372.16c-10.48-32.2-22.19-63-34.81-91.93a59.09,59.09,0,0,0-67-34.08c-30.82,6.84-62.6,15.48-94.8,26s-63,22.19-91.92,34.81a59.09,59.09,0,0,0-34.09,67c6.84,30.83,15.49,62.6,26,94.81,7.57,23.27,15.79,45.8,24.53,67.43.63,1.54,1.5,3.62,2.53,6,2.87-1.49,5.79-2.91,8.79-4.17l133.29-56.09a60,60,0,0,1,63.77,10.65,61.53,61.53,0,0,1,7.32,7.77c6.08,7.7,18.24,5.78,21.22-3.57a502.81,502.81,0,0,1,35.84-84.79,38,38,0,0,0,2.69-29.32Q690.93,377.4,689.22,372.16Z"/><path class="cls-1" d="M433,623.85a36.87,36.87,0,0,0,3,6.87C432.82,629.8,432.72,626.63,433,623.85Z"/><path class="cls-1" d="M610.46,545.07c6.26-21.3-15-40.32-35.5-31.71L441.68,569.45a89.24,89.24,0,0,0-49.3,51.86c-.78,2.16-1.48,6.67-2.1,12.36a59.33,59.33,0,0,1-58.92,53.09H312.41A6.37,6.37,0,0,1,306,680.4V668.63a3.24,3.24,0,0,1,3.24-3.23,4.84,4.84,0,0,0,4.84-4.84v-2a4.84,4.84,0,0,0-4.84-4.84H281.17a4.84,4.84,0,0,1-4.84-4.84V632.4a4.47,4.47,0,0,0-4.46-4.47H257.59a3,3,0,0,1-3-3V597.38a2.66,2.66,0,0,0-2.66-2.66,1.51,1.51,0,0,1-1.51-1.52V544.53a2.83,2.83,0,0,0-5.66,0V593.2a1.52,1.52,0,0,1-1.51,1.52,2.66,2.66,0,0,0-2.66,2.66V625a3,3,0,0,1-3,3H223.37a4.46,4.46,0,0,0-4.46,4.47v16.43a4.84,4.84,0,0,1-4.84,4.84H186a4.84,4.84,0,0,0-4.84,4.84v2A4.84,4.84,0,0,0,186,665.4h0a3.24,3.24,0,0,1,3.24,3.23V680.4a6.37,6.37,0,0,1-6.37,6.36,19.21,19.21,0,0,0-18.64,14.59c-1.43,5.79-2.65,11.63-4.35,17.34l-4.46,15a14,14,0,0,0,13.38,17.94H274.65v0H584.9a11.91,11.91,0,0,0,10.39-17.73L583,712.1a69,69,0,0,1-6-53.21ZM439.83,630.86c-8.86,1.16-6.84-6.2-6.42-9.74,1.47-12.29,3.59-14.14,12.07-15.63,5.88-1,5.37,5.6,5.47,8.08C451.63,627.8,449.11,629.65,439.83,630.86ZM472.11,616c-8.87,1.16-6.84-6.2-6.42-9.75,1.47-12.28,3.59-14.13,12.07-15.63,5.88-1,5.37,5.61,5.47,8.09C483.9,613,481.39,614.81,472.11,616Zm32.28-14.14c-8.87,1.16-6.84-6.21-6.42-9.75,1.47-12.28,3.59-14.13,12.07-15.63,5.88-1,5.37,5.61,5.47,8.09C516.18,598.81,513.67,600.66,504.39,601.88Zm32.28-12.81c-8.87,1.16-6.85-6.2-6.42-9.74,1.47-12.29,3.59-14.13,12.07-15.63,5.87-1,5.37,5.6,5.47,8.08C548.46,586,546,587.86,536.67,589.07Z"/><path class="cls-1" d="M224.66,970.27l-3.45-.89a3.34,3.34,0,0,0-3.94,2c-1.84,4.52-4,8.21-6.1,10.39l0,0c-1.63,1.77-2.18,2.37-7.43,2.37l-7-.09-1.7,0c-2.9-.05-3.4-.44-3.45-.48s-.49-1-.49-4.62V933.69c0-1.38,0-5.59.74-6.33s4-1,6.36-1.23a3.35,3.35,0,0,0,3-3.34v-3.11a3.35,3.35,0,0,0-3.35-3.35H168a3.35,3.35,0,0,0-3.35,3.35v3.11a3.35,3.35,0,0,0,3,3.34c2.23.22,5.61.56,6.27,1.23s.72,4.81.72,6.33v44.16c0,1.82,0,5.6-.69,6.28s-4.71,1.14-7.3,1.4a3.35,3.35,0,0,0-3,3.34V992a3.35,3.35,0,0,0,3.35,3.35H218.7a3.34,3.34,0,0,0,3.19-2.32c1.11-3.42,4.5-15.12,5.22-18.86A3.35,3.35,0,0,0,224.66,970.27Z"/><path class="cls-1" d="M314.52,985.54c-3.72-.42-5.11-.79-6-1.58-1.12-1-2.17-3.5-3.72-7.7-8.92-24.49-15.81-43.33-21.69-59.3a3.35,3.35,0,0,0-3.77-2.13l-3.56.66a3.4,3.4,0,0,0-2.5,2.07l-23,58.41c-1.78,4.58-3,6.88-4.23,7.94-1.06.91-2.56,1.23-5.75,1.63a3.36,3.36,0,0,0-2.93,3.33V992a3.35,3.35,0,0,0,3.36,3.35h25.69a3.35,3.35,0,0,0,3.35-3.35v-3.11a3.34,3.34,0,0,0-2.94-3.33c-1.48-.18-5.3-.65-6.33-1.25a12.09,12.09,0,0,1,.86-3.57c.91-2.67,1.85-5.24,2.86-8,.43-1.2.88-2.41,1.33-3.67h19.27c1.05,3,2.05,5.78,3,8.25s1.65,4.5,2.27,6.37l0,.09c.16.44.27.76.33,1a25.73,25.73,0,0,1-4.15.75,3.36,3.36,0,0,0-2.95,3.33V992a3.35,3.35,0,0,0,3.36,3.35h27.47a3.35,3.35,0,0,0,3.35-3.35v-3.11A3.35,3.35,0,0,0,314.52,985.54Zm-44.8-27.72c1.94-5.16,3.94-10.5,5.75-15.33l5.45,15.33Z"/><path class="cls-1" d="M437.72,955H409.13a3.35,3.35,0,0,0-3.35,3.35v3.22a3.36,3.36,0,0,0,3.11,3.35c2.4.17,6.87.5,7.85,1.34.61.52.61,3.73.61,5.1v9.12c0,3-.51,3.31-2,4.16a19.15,19.15,0,0,1-7.88,1.5c-20.18,0-27.35-17.19-27.35-31.91,0-18,9.23-28.68,24.68-28.68a34.44,34.44,0,0,1,9.25,1.26h0c5.17,1.73,8.1,4.19,10.74,13.53a3.35,3.35,0,0,0,3.88,2.37l3.34-.66a3.36,3.36,0,0,0,2.66-3.71c-.89-7-1.43-13.72-1.64-17.67a3.37,3.37,0,0,0-2.82-3.13c-.61-.1-1.46-.27-2.45-.46a102.37,102.37,0,0,0-21.22-2.36c-12,0-23.06,3.81-31.2,10.74-8.85,7.53-13.53,17.94-13.53,30.1s4.1,22.37,11.86,29.82,19,11.57,32.09,11.57c8.47,0,16.58-1.89,23.1-3.42l2.89-.67a3.35,3.35,0,0,0,2.56-3.88,58.92,58.92,0,0,1-.61-9.95v-9.35a19,19,0,0,1,.26-4,19.53,19.53,0,0,1,4.16-.83,3.36,3.36,0,0,0,2.92-3.33v-3.22A3.35,3.35,0,0,0,437.72,955Z"/><path class="cls-1" d="M524.77,986.51a12.65,12.65,0,0,1-6.51-4.15,98.47,98.47,0,0,1-8.48-11.07c-2.48-3.72-5.81-8.87-8.13-12.62,8.49-4.71,12.94-11.75,12.94-20.53,0-7.55-3.23-13.76-9.09-17.5-4.62-3-10.49-4.31-19.62-4.31H457.52a3.35,3.35,0,0,0-3.36,3.35v3.11a3.35,3.35,0,0,0,3,3.33c2.53.29,5.68.65,6.32,1.28s.72,4.83.72,6.18V978c0,1.7,0,5.66-.63,6.32s-4.09,1-6.4,1.25a3.36,3.36,0,0,0-3,3.34V992a3.35,3.35,0,0,0,3.36,3.35h29.7a3.35,3.35,0,0,0,3.35-3.35v-3.11a3.35,3.35,0,0,0-3-3.34c-2.26-.22-5.66-.56-6.35-1.26s-.76-4.79-.76-6.31V963.85H481c4.84,0,5.06.36,6.5,2.66,1,1.6,2,3.28,3.12,5.07,2.78,4.57,5.66,9.3,8.67,13.44,5.29,7.46,10.49,10.33,19.82,11l.49,0c1.28.1,2.48.19,3.89.19a3.35,3.35,0,0,0,3.32-2.88l.44-3.11A3.35,3.35,0,0,0,524.77,986.51Zm-44.33-57a11.7,11.7,0,0,1,.14-2.17,12.7,12.7,0,0,1,3.74-.38c6,0,13.11,2.24,13.11,12.89,0,5.15-1.47,8.54-4.76,11l-.16.13c-2.06,1.73-5,2.44-10.08,2.44h-2Z"/><path class="cls-1" d="M610.06,985.54c-3.72-.42-5.11-.79-6-1.58-1.12-1-2.17-3.5-3.72-7.7-8.91-24.49-15.81-43.33-21.69-59.3a3.35,3.35,0,0,0-3.76-2.13l-3.56.66a3.36,3.36,0,0,0-2.5,2.07l-23,58.41c-1.78,4.58-3,6.88-4.23,7.94-1.06.91-2.56,1.23-5.75,1.63a3.35,3.35,0,0,0-2.92,3.33V992a3.35,3.35,0,0,0,3.35,3.35H562a3.35,3.35,0,0,0,3.35-3.35v-3.11a3.34,3.34,0,0,0-2.94-3.33c-1.48-.18-5.29-.65-6.33-1.25a12.09,12.09,0,0,1,.86-3.57c.91-2.67,1.86-5.24,2.86-8,.43-1.2.88-2.41,1.33-3.67h19.27c1,3,2,5.78,3,8.25s1.65,4.5,2.27,6.37a.36.36,0,0,0,0,.09c.15.44.26.76.32,1a25.48,25.48,0,0,1-4.15.75,3.35,3.35,0,0,0-2.94,3.33V992a3.35,3.35,0,0,0,3.35,3.35h27.47A3.35,3.35,0,0,0,613,992v-3.11A3.35,3.35,0,0,0,610.06,985.54Zm-44.8-27.72c1.94-5.16,3.94-10.5,5.75-15.33l5.45,15.33Z"/><path class="cls-1" d="M702.12,916.33H674.64a3.35,3.35,0,0,0-3.35,3.35v3.11a3.36,3.36,0,0,0,3.14,3.35c8.43.52,8.5,1.68,8.66,4a.37.37,0,0,0,0,.11c.27,2.67.54,6.91.54,18.14v18.07l-41.25-48.93a3.35,3.35,0,0,0-2.56-1.19H623.14a3.35,3.35,0,0,0-3.35,3.35v3.11a3.36,3.36,0,0,0,3,3.34c5.2.53,6.34,1.08,7.57,2.69l.08.1c1.32,1.62,1.46,2.49,1.46,5.22V962.5c0,8.84-.16,14.33-.54,18.38v0c-.22,2.71-.33,4.07-6.94,4.61a3.35,3.35,0,0,0-3.08,3.34V992a3.35,3.35,0,0,0,3.35,3.35h27a3.35,3.35,0,0,0,3.35-3.35v-3.11a3.35,3.35,0,0,0-3.07-3.34c-7.78-.65-7.83-1.95-8-4.8v-.1c-.21-3-.55-8-.55-18V944.19l41.66,50.91a3.36,3.36,0,0,0,2.6,1.23H692a3.35,3.35,0,0,0,3.36-3.35v-44.6c0-8.75.16-13.4.27-16.79,0-.57,0-1.11.06-1.63.16-2.51.25-3.12,6.8-3.84a3.35,3.35,0,0,0,3-3.33v-3.11A3.35,3.35,0,0,0,702.12,916.33Z"/><path class="cls-1" d="M774.05,937.54a3.34,3.34,0,0,0,2.79-3.55c-.45-5.9-.63-11.9-.74-14.67a3.41,3.41,0,0,0-1.13-2.38,3.36,3.36,0,0,0-2.5-.82c-.76.06-3.83.21-15.85.21h-34a3.35,3.35,0,0,0-3.35,3.35v3.11a3.36,3.36,0,0,0,3,3.34c2.06.19,5.16.48,5.75,1.12.78.85.78,5.31.78,6.78V978c0,1.93,0,5.51-.71,6.21-.86.87-5.22,1.2-7.32,1.35a3.36,3.36,0,0,0-3.1,3.35V992a3.35,3.35,0,0,0,3.35,3.35h54.06a3.34,3.34,0,0,0,3.18-2.29c1.17-3.52,4.2-15.08,4.87-18a3.34,3.34,0,0,0-2.4-4l-3.34-.89a3.35,3.35,0,0,0-3.9,1.83c-2.1,4.49-4,7.82-5.45,9.39l-.08.08c-1.94,2.3-2.29,2.71-7.78,2.71H749.87c-1,0-3.35-.07-3.91-.57-.13-.11-.79-.88-.79-4.64V960.18h8.89c1.38,0,4.63,0,5.38.68s1.35,3.95,1.67,5.69a3.34,3.34,0,0,0,3.29,2.75h3.45A3.35,3.35,0,0,0,771.2,966V943a3.26,3.26,0,0,0-2.26-2.93l-.51-.19a3.67,3.67,0,0,0-1.19-.2H764.4a3.34,3.34,0,0,0-3.29,2.76c-.42,2.33-.88,5-1.58,5.68s-4.22.79-5.36.79h-9V927.69a1.41,1.41,0,0,1,0-.21h10.88c6.19,0,8,2.62,8.05,2.65,1.42,1.81,1.74,2.51,2.81,5.52a3,3,0,0,0,1,1.66C769.7,938.65,774.05,937.54,774.05,937.54Z"/><path class="cls-1" d="M866,986.51a12.61,12.61,0,0,1-6.51-4.15A98.47,98.47,0,0,1,851,971.29c-2.48-3.72-5.81-8.87-8.13-12.62,8.48-4.71,12.94-11.75,12.94-20.53,0-7.55-3.23-13.76-9.1-17.5-4.61-3-10.48-4.31-19.61-4.31H798.77a3.35,3.35,0,0,0-3.35,3.35v3.11a3.35,3.35,0,0,0,3,3.33c2.54.29,5.69.65,6.33,1.28s.71,4.83.71,6.18V978c0,1.7,0,5.66-.62,6.32s-4.09,1-6.4,1.25a3.36,3.36,0,0,0-3,3.34V992a3.35,3.35,0,0,0,3.35,3.35h29.7a3.35,3.35,0,0,0,3.35-3.35v-3.11a3.35,3.35,0,0,0-3-3.34c-2.26-.22-5.66-.56-6.35-1.26s-.76-4.79-.76-6.31V963.85h.54c4.85,0,5.07.36,6.51,2.66,1,1.6,2,3.28,3.12,5.07,2.78,4.57,5.66,9.3,8.66,13.44,5.3,7.46,10.49,10.33,19.83,11l.49,0c1.27.1,2.48.19,3.89.19a3.34,3.34,0,0,0,3.31-2.88l.45-3.11A3.35,3.35,0,0,0,866,986.51Zm-44.33-57a10.79,10.79,0,0,1,.14-2.17,12.7,12.7,0,0,1,3.74-.38c6,0,13.11,2.24,13.11,12.89,0,5.15-1.47,8.54-4.76,11l-.16.13c-2.06,1.73-5,2.44-10.08,2.44h-2Z"/><path class="cls-1" d="M951.32,985.54c-3.72-.42-5.11-.79-6-1.58-1.12-1-2.17-3.5-3.72-7.7-8.92-24.49-15.81-43.33-21.69-59.3a3.35,3.35,0,0,0-3.77-2.13l-3.56.66a3.4,3.4,0,0,0-2.5,2.07l-23,58.41c-1.78,4.58-3,6.88-4.23,7.94-1.06.91-2.56,1.23-5.75,1.63a3.36,3.36,0,0,0-2.93,3.33V992a3.35,3.35,0,0,0,3.36,3.35h25.69a3.35,3.35,0,0,0,3.35-3.35v-3.11a3.34,3.34,0,0,0-2.94-3.33c-1.48-.18-5.3-.65-6.33-1.25a12.09,12.09,0,0,1,.86-3.57c.91-2.67,1.85-5.24,2.85-8,.44-1.2.89-2.41,1.34-3.67h19.27c1,3,2,5.78,3,8.25s1.65,4.5,2.27,6.37l0,.09c.16.44.27.76.33,1a25.73,25.73,0,0,1-4.15.75,3.36,3.36,0,0,0-2.95,3.33V992a3.35,3.35,0,0,0,3.36,3.35h27.47a3.35,3.35,0,0,0,3.35-3.35v-3.11A3.35,3.35,0,0,0,951.32,985.54Zm-44.8-27.72c1.94-5.16,3.94-10.5,5.75-15.33l5.45,15.33Z"/><rect class="cls-1" x="322.54" y="821.1" width="6.29" height="54.94" rx="1.24"/><path class="cls-1" d="M385.81,821.1h-3.34a1.23,1.23,0,0,0-1.23,1.23v42.3L349.61,822.3a2.85,2.85,0,0,0-1.12-1,3.2,3.2,0,0,0-1.31-.23h-1.86a1.23,1.23,0,0,0-1.23,1.23V874.8a1.24,1.24,0,0,0,1.23,1.24h3.3a1.24,1.24,0,0,0,1.24-1.24V832.39l31.75,42.38A2.81,2.81,0,0,0,384,876h1.82a1.25,1.25,0,0,0,1.24-1.24V822.33A1.24,1.24,0,0,0,385.81,821.1Z"/><path class="cls-1" d="M441.58,821.1h-3a2.57,2.57,0,0,0-1.67.58h0a3.3,3.3,0,0,0-.87,1.13v0l-17.81,43.45-17.84-43.46a3.1,3.1,0,0,0-.87-1.2,2.51,2.51,0,0,0-1.64-.56h-3a1.24,1.24,0,0,0-1.15,1.71l21.65,52.46a1.27,1.27,0,0,0,1.15.77h3.37a1.27,1.27,0,0,0,1.15-.77l21.65-52.46a1.23,1.23,0,0,0-.12-1.16A1.21,1.21,0,0,0,441.58,821.1Z"/><path class="cls-1" d="M482.1,821.1H450.66a1.24,1.24,0,0,0-1.24,1.23V874.8a1.25,1.25,0,0,0,1.24,1.24H482.1a1.25,1.25,0,0,0,1.24-1.24v-3.15a1.24,1.24,0,0,0-1.24-1.24H455.71V851h21.76a1.24,1.24,0,0,0,1.23-1.24v-3.08a1.23,1.23,0,0,0-1.23-1.23H455.71V826.72H482.1a1.24,1.24,0,0,0,1.24-1.23v-3.16A1.24,1.24,0,0,0,482.1,821.1Z"/><path class="cls-1" d="M515.53,851.46a20.65,20.65,0,0,0,4-1.28,17,17,0,0,0,5.05-3.32,14,14,0,0,0,3.27-4.77,15.43,15.43,0,0,0,1.13-6c0-4.91-1.66-8.69-5-11.27s-8-3.76-14.33-3.76H496.34a1.23,1.23,0,0,0-1.24,1.23V874.8a1.24,1.24,0,0,0,1.24,1.24h3.78a1.25,1.25,0,0,0,1.24-1.24V852.31H507a4.28,4.28,0,0,1,1.72.22,2.46,2.46,0,0,1,.9.79l16.8,21.28a3.92,3.92,0,0,0,1.23,1.07,3.42,3.42,0,0,0,1.59.37h3.3a1.26,1.26,0,0,0,1.12-.7,1.25,1.25,0,0,0-.15-1.31Zm-14.17-24.89h8.36c4.38,0,7.73.83,9.95,2.47s3.16,4,3.16,7.31a10.57,10.57,0,0,1-.89,4.42,9.19,9.19,0,0,1-2.56,3.3,12.16,12.16,0,0,1-4.25,2.16,20.44,20.44,0,0,1-5.89.78h-7.88Z"/><path class="cls-1" d="M567.14,849.47h0a19.09,19.09,0,0,0-4.51-2.64c-1.59-.66-3.25-1.28-4.93-1.83s-3.24-1.08-4.82-1.64a18.14,18.14,0,0,1-4-1.93,8.93,8.93,0,0,1-2.63-2.6,6.77,6.77,0,0,1-.93-3.74,8.84,8.84,0,0,1,.67-3.42,8.22,8.22,0,0,1,1.94-2.84,9.3,9.3,0,0,1,3.22-2,15.18,15.18,0,0,1,9-.11,15.21,15.21,0,0,1,4.91,2.81,3.15,3.15,0,0,0,2.07,1,2.26,2.26,0,0,0,2.06-1.3l.89-1.7a1.24,1.24,0,0,0-.22-1.45,18.74,18.74,0,0,0-6.34-4.24,20.91,20.91,0,0,0-7.79-1.39,18.65,18.65,0,0,0-6.93,1.22,15.64,15.64,0,0,0-5.18,3.27,13.87,13.87,0,0,0-3.21,4.74,14.45,14.45,0,0,0-1.1,5.54,13.8,13.8,0,0,0,1.26,6.18A12.78,12.78,0,0,0,544,845.6a18.4,18.4,0,0,0,4.52,2.65c1.59.65,3.26,1.25,4.95,1.77s3.25,1.05,4.81,1.59a17.77,17.77,0,0,1,3.94,1.89,8.62,8.62,0,0,1,2.62,2.62,7.27,7.27,0,0,1,.94,3.92,11.84,11.84,0,0,1-.8,4.35,9.88,9.88,0,0,1-2.29,3.44,11.18,11.18,0,0,1-3.73,2.31,14.27,14.27,0,0,1-5.12.86,15.06,15.06,0,0,1-6.68-1.42,13.13,13.13,0,0,1-2.21-1.29c-.66-.48-1.24-.93-1.7-1.34l-1.27-1.1a2.56,2.56,0,0,0-1.66-.74,2.51,2.51,0,0,0-2,1,1,1,0,0,0-.08.11l-1,1.63a1.25,1.25,0,0,0,.12,1.48,22.31,22.31,0,0,0,7,5.32,21.41,21.41,0,0,0,9.48,2,20.43,20.43,0,0,0,7.57-1.33,16.58,16.58,0,0,0,5.68-3.67,15.68,15.68,0,0,0,3.56-5.49,18.18,18.18,0,0,0,1.22-6.65,12.07,12.07,0,0,0-4.59-10Z"/><rect class="cls-1" x="582.38" y="821.1" width="6.29" height="54.94" rx="1.24"/><path class="cls-1" d="M645.92,828.24h0a23.69,23.69,0,0,0-8.33-5.73,27.67,27.67,0,0,0-10.67-2,27.35,27.35,0,0,0-10.6,2,24.26,24.26,0,0,0-8.32,5.72,26,26,0,0,0-5.39,8.87,35.25,35.25,0,0,0,0,22.89,26,26,0,0,0,5.39,8.87,24,24,0,0,0,8.33,5.71,29.25,29.25,0,0,0,21.26,0,24,24,0,0,0,8.33-5.71,25.76,25.76,0,0,0,5.37-8.88,35.36,35.36,0,0,0,0-22.87A26,26,0,0,0,645.92,828.24Zm-19,42.58a21.2,21.2,0,0,1-8.07-1.5,17.48,17.48,0,0,1-6.24-4.33,20.09,20.09,0,0,1-4.08-7,31.17,31.17,0,0,1,0-18.92,20.06,20.06,0,0,1,4.08-7,17.62,17.62,0,0,1,6.24-4.35,20.87,20.87,0,0,1,8.07-1.52,21.2,21.2,0,0,1,8.17,1.52,17.26,17.26,0,0,1,6.21,4.34,20.06,20.06,0,0,1,4,7,31.62,31.62,0,0,1,0,18.93,20,20,0,0,1-4,7,17.11,17.11,0,0,1-6.21,4.33A21.58,21.58,0,0,1,626.92,870.82Z"/><path class="cls-1" d="M705.53,821.1h-3.34a1.24,1.24,0,0,0-1.24,1.23v42.3L669.33,822.3a2.94,2.94,0,0,0-1.13-1,3.2,3.2,0,0,0-1.31-.23H665a1.23,1.23,0,0,0-1.24,1.23V874.8A1.24,1.24,0,0,0,665,876h3.3a1.24,1.24,0,0,0,1.23-1.24V832.39l31.75,42.38a2.82,2.82,0,0,0,2.39,1.27h1.82a1.24,1.24,0,0,0,1.23-1.24V822.33A1.23,1.23,0,0,0,705.53,821.1Z"/><path class="cls-1" d="M753.28,821.1H721.84a1.24,1.24,0,0,0-1.24,1.23V874.8a1.25,1.25,0,0,0,1.24,1.24h31.44a1.25,1.25,0,0,0,1.24-1.24v-3.15a1.24,1.24,0,0,0-1.24-1.24H726.9V851h21.75a1.24,1.24,0,0,0,1.23-1.24v-3.08a1.23,1.23,0,0,0-1.23-1.23H726.9V826.72h26.38a1.24,1.24,0,0,0,1.24-1.23v-3.16A1.24,1.24,0,0,0,753.28,821.1Z"/><path class="cls-1" d="M794.1,853.52a12.66,12.66,0,0,0-3.31-4,19.09,19.09,0,0,0-4.51-2.64c-1.6-.66-3.26-1.28-4.94-1.83s-3.24-1.08-4.81-1.64a17.92,17.92,0,0,1-3.95-1.93,8.82,8.82,0,0,1-2.63-2.6,6.77,6.77,0,0,1-.94-3.74,9,9,0,0,1,.67-3.42,8.24,8.24,0,0,1,2-2.84,9.21,9.21,0,0,1,3.22-2,15.15,15.15,0,0,1,9-.11,14.91,14.91,0,0,1,3,1.42,14.72,14.72,0,0,1,1.91,1.39,3.15,3.15,0,0,0,2.07,1,2.26,2.26,0,0,0,2.06-1.3l.89-1.7a1.24,1.24,0,0,0-.22-1.45,18.84,18.84,0,0,0-6.34-4.24,20.91,20.91,0,0,0-7.79-1.39,18.74,18.74,0,0,0-6.94,1.22,15.7,15.7,0,0,0-5.17,3.27,13.9,13.9,0,0,0-3.22,4.74,14.63,14.63,0,0,0-1.09,5.54,13.66,13.66,0,0,0,1.26,6.18,12.65,12.65,0,0,0,3.32,4.15,18.22,18.22,0,0,0,4.52,2.65c1.59.65,3.26,1.25,5,1.77s3.25,1.05,4.81,1.59a18,18,0,0,1,3.94,1.89,8.62,8.62,0,0,1,2.62,2.62,7.36,7.36,0,0,1,.94,3.92,11.84,11.84,0,0,1-.8,4.35,9.88,9.88,0,0,1-2.29,3.44,11.18,11.18,0,0,1-3.73,2.31,14.27,14.27,0,0,1-5.12.86,15.62,15.62,0,0,1-3.75-.4,15.87,15.87,0,0,1-2.93-1,13.13,13.13,0,0,1-2.21-1.29,20.72,20.72,0,0,1-1.7-1.34l-1.27-1.1a2.58,2.58,0,0,0-1.66-.74,2.51,2.51,0,0,0-2,1,.44.44,0,0,0-.08.11l-1,1.63a1.23,1.23,0,0,0,.12,1.48,22.39,22.39,0,0,0,6.94,5.32,21.47,21.47,0,0,0,9.48,2,20.45,20.45,0,0,0,7.58-1.33,16.67,16.67,0,0,0,5.68-3.67,15.68,15.68,0,0,0,3.56-5.49,18.18,18.18,0,0,0,1.22-6.65A12.76,12.76,0,0,0,794.1,853.52Z"/></svg>