<svg id="Capa_1" data-name="Capa 1" xmlns="http://www.w3.org/2000/svg" viewBox="0 0 1080 1080"><defs><style>.cls-1{fill:#6e9033;}.cls-2{fill:#4062a1;}.cls-3{fill:#363559;}.cls-4{fill:#2e2e2e;}</style></defs><title>recursos LOGO LA GRANERA SVG</title><path class="cls-1" d="M721.43,714c0-159.18,73.75-301.13,188.91-393.6a17.37,17.37,0,0,0,5.45-19.68c-.74-2-1.49-3.9-2.27-5.84a17.45,17.45,0,0,0-27.13-7.23C764,386.66,685.68,538.11,685.68,707.86q0,24.78,2.21,49a17.42,17.42,0,0,0,24,14.49l.33-.13A17.53,17.53,0,0,0,723,753.67Q721.45,734,721.43,714Z"/><path class="cls-1" d="M794.32,713.08a430.44,430.44,0,0,1,137.57-316A15.25,15.25,0,0,0,936.54,384c0-.14,0-.27,0-.41-1.83-14.17-19.09-20.21-29.43-10.35-88.3,84.19-143.33,203-143.33,334.6q0,4.44.09,8.87A15.21,15.21,0,0,0,788,728.66h0a15.43,15.43,0,0,0,6.34-12.59C794.32,715.07,794.32,714.08,794.32,713.08Z"/><path class="cls-1" d="M935.59,484.88c0-.17,0-.33.07-.49,2.13-14.68-16.78-22.54-25.62-10.63a391.17,391.17,0,0,0-72.76,174.46c-2,13.5,15.09,21,23.53,10.25l.28-.36a13.16,13.16,0,0,0,2.61-6A365.43,365.43,0,0,1,933,490.94,13.16,13.16,0,0,0,935.59,484.88Z"/><path d="M462.14,647.38a39.2,39.2,0,0,1-3.09-7.12C458.72,643.14,458.82,646.43,462.14,647.38Z"/><path class="cls-2" d="M225,401.12C246.28,376.93,273,353.26,304.26,331a71.39,71.39,0,0,0,30-59c-.4-38.35,3-73.91,10-105.38,2.52-11.34-11-19.31-19.66-11.55A369.91,369.91,0,0,0,204,392C202.86,403.58,217.27,409.83,225,401.12Z"/><path class="cls-2" d="M669.3,163a71.39,71.39,0,0,0,59,30c38.35-.4,73.91,3,105.38,10C845,205.5,853,192,845.22,183.32A369.91,369.91,0,0,0,608.28,62.75c-11.55-1.19-17.8,13.23-9.09,20.91C623.38,105,647.05,131.73,669.3,163Z"/><path class="cls-2" d="M266.94,519.76a38.36,38.36,0,0,1,38.32,38.32v20.59a89.49,89.49,0,0,0,2.94,24l.18.68a36.89,36.89,0,0,0,10,17.27c.92.9,1.86,1.85,2.79,2.83a77,77,0,0,0,26.27,18.16c6.14,2.58,12.25,5.91,15.29,9.82,5.14,6.62,15.66,4.21,16.77-4.1,0-.22.06-.44.08-.67,1.07-9.9,2.26-16,4.09-21a128,128,0,0,1,24.56-41.19,838,838,0,0,1-60.36-186.06,30.88,30.88,0,0,0-47.26-19.74c-36,23.67-65.87,48.32-87.9,72.66A30.52,30.52,0,0,0,205,475.52,370.27,370.27,0,0,0,220.3,543.6l.07.23a10,10,0,0,0,18.12,1.69C245.51,533.09,255.66,519.76,266.94,519.76Z"/><path class="cls-2" d="M414.37,267.64A838.7,838.7,0,0,1,602,206.57a30.79,30.79,0,0,0,19.86-47.1c-23.64-36-48.27-65.85-72.59-87.89a31,31,0,0,0-24.73-7.82,372.46,372.46,0,0,0-131.6,42.83,31,31,0,0,0-15.39,20.89c-6.68,32.13-9,70.74-6.94,113.78A30.8,30.8,0,0,0,414.37,267.64Z"/><path class="cls-2" d="M861.7,234.14l-.12,0c-29.79-5.05-64.5-6.68-102.69-4.82a30.69,30.69,0,0,0-26.33,43.53q11.93,25.68,22.43,53.29a18,18,0,0,0,30.58,5.15,529,529,0,0,1,80.89-78A10.77,10.77,0,0,0,861.7,234.14Z"/><path class="cls-2" d="M724.47,379.49c-10.86-33.37-23-65.25-36.06-95.24A61.23,61.23,0,0,0,619,248.93C587.06,256,554.15,265,520.78,275.84s-65.25,23-95.24,36.06a61.23,61.23,0,0,0-35.32,69.41c7.09,31.94,16,64.85,26.91,98.22,7.85,24.11,16.36,47.45,25.42,69.86.64,1.61,1.55,3.76,2.61,6.21,3-1.54,6-3,9.12-4.32l138.09-58.11a62.16,62.16,0,0,1,66.07,11,64.58,64.58,0,0,1,7.59,8.05c6.3,8,18.89,6,22-3.7a522.35,522.35,0,0,1,37.14-87.85,39.41,39.41,0,0,0,2.78-30.37Q726.23,384.92,724.47,379.49Z"/><path d="M459.05,640.26a39.2,39.2,0,0,0,3.09,7.12C458.82,646.43,458.72,643.14,459.05,640.26Z"/><path class="cls-3" d="M642.87,558.64c6.48-22.07-15.57-41.77-36.78-32.85L468,583.9a92.46,92.46,0,0,0-51.07,53.73c-.82,2.24-1.54,6.91-2.18,12.8a61.48,61.48,0,0,1-61.05,55H334.07a6.59,6.59,0,0,1-6.6-6.59V686.66a3.36,3.36,0,0,1,3.36-3.36,5,5,0,0,0,5-5v-2.12a5,5,0,0,0-5-5H301.7a5,5,0,0,1-5-5v-17a4.62,4.62,0,0,0-4.63-4.62H277.27a3.07,3.07,0,0,1-3.07-3.08V612.83a2.77,2.77,0,0,0-2.76-2.76,1.56,1.56,0,0,1-1.57-1.56V558.08a2.93,2.93,0,1,0-5.86,0v50.43a1.56,1.56,0,0,1-1.56,1.56,2.76,2.76,0,0,0-2.76,2.76v28.58a3.08,3.08,0,0,1-3.08,3.08H241.82a4.62,4.62,0,0,0-4.63,4.62v17a5,5,0,0,1-5,5H203.06a5,5,0,0,0-5,5v2.12a5,5,0,0,0,5,5h0a3.36,3.36,0,0,1,3.35,3.36v12.19a6.59,6.59,0,0,1-6.6,6.59,19.91,19.91,0,0,0-19.31,15.12c-1.48,6-2.74,12-4.5,18l-4.62,15.54a14.46,14.46,0,0,0,13.86,18.59H295v0H616.39a12.34,12.34,0,0,0,10.76-18.37l-12.7-22.63a71.52,71.52,0,0,1-6.24-55.12ZM466.09,647.52c-9.19,1.2-7.09-6.42-6.65-10.09,1.52-12.73,3.72-14.64,12.5-16.2,6.09-1.07,5.57,5.81,5.67,8.38C478.31,644.35,475.71,646.27,466.09,647.52Zm33.44-15.38c-9.18,1.21-7.09-6.42-6.65-10.09,1.52-12.73,3.72-14.64,12.5-16.19,6.09-1.08,5.57,5.8,5.67,8.37C511.75,629,509.15,630.89,499.53,632.14ZM533,617.49c-9.18,1.2-7.09-6.42-6.65-10.09,1.53-12.73,3.72-14.64,12.51-16.2,6.09-1.07,5.56,5.81,5.67,8.38C545.19,614.32,542.59,616.24,533,617.49Zm33.44-13.26c-9.18,1.2-7.08-6.43-6.64-10.1,1.52-12.73,3.71-14.64,12.5-16.19,6.09-1.08,5.56,5.81,5.67,8.37C578.63,601.05,576,603,566.41,604.23Z"/><path class="cls-2" d="M207.36,982.08l-3.58-.92a3.48,3.48,0,0,0-4.08,2.06c-1.9,4.68-4.14,8.51-6.32,10.77l0,0c-1.69,1.84-2.25,2.45-7.7,2.45l-7.28-.09-1.76,0c-3,0-3.53-.46-3.58-.5s-.5-1-.5-4.79v-46.9c0-1.44,0-5.8.77-6.57s4.09-1,6.59-1.27a3.47,3.47,0,0,0,3.12-3.46v-3.23a3.47,3.47,0,0,0-3.47-3.47H148.63a3.48,3.48,0,0,0-3.47,3.47v3.23a3.47,3.47,0,0,0,3.13,3.46c2.32.23,5.82.58,6.5,1.28s.75,5,.75,6.56v45.75c0,1.88,0,5.8-.72,6.5s-4.88,1.19-7.56,1.45a3.47,3.47,0,0,0-3.13,3.46v3.23a3.47,3.47,0,0,0,3.47,3.47h53.59a3.47,3.47,0,0,0,3.3-2.41c1.15-3.55,4.66-15.67,5.41-19.54A3.48,3.48,0,0,0,207.36,982.08Z"/><path class="cls-2" d="M300.46,997.9c-3.85-.44-5.3-.82-6.18-1.63-1.17-1.07-2.26-3.63-3.86-8-9.24-25.36-16.38-44.88-22.48-61.43a3.46,3.46,0,0,0-3.89-2.21l-3.69.69a3.48,3.48,0,0,0-2.59,2.14L233.91,988c-1.85,4.74-3.12,7.12-4.39,8.22-1.1.95-2.66,1.28-6,1.69a3.48,3.48,0,0,0-3,3.45v3.23a3.48,3.48,0,0,0,3.47,3.47h26.63a3.48,3.48,0,0,0,3.47-3.47v-3.23a3.47,3.47,0,0,0-3-3.45c-1.54-.18-5.49-.67-6.56-1.29a12.54,12.54,0,0,1,.89-3.71c.94-2.75,1.92-5.42,3-8.25.45-1.24.92-2.5,1.39-3.8h20c1.08,3.15,2.12,6,3.06,8.55s1.71,4.66,2.36,6.59l0,.1c.17.45.27.79.34,1a25.92,25.92,0,0,1-4.3.78,3.49,3.49,0,0,0-3.05,3.45v3.23a3.47,3.47,0,0,0,3.47,3.47h28.47a3.47,3.47,0,0,0,3.47-3.47v-3.23A3.47,3.47,0,0,0,300.46,997.9ZM254,969.18c2-5.34,4.09-10.87,6-15.88l5.65,15.88Z"/><path class="cls-1" d="M427.45,966.45H398.1a3.47,3.47,0,0,0-3.47,3.47v3.34a3.56,3.56,0,0,0,3.42,3.46c2.63.19,7.54.52,8.62,1.4.67.54.67,3.86.67,5.28v8.34c0,3-.51,3.3-2,4.15a19.11,19.11,0,0,1-7.86,1.5c-20.13,0-27.27-17.14-27.27-31.82,0-17.91,9.2-28.6,24.61-28.6a34.56,34.56,0,0,1,9.21,1.25l0,0c5.14,1.71,8.05,4.15,10.67,13.34a3.49,3.49,0,0,0,4,2.49l3.09-.62a3.46,3.46,0,0,0,2.76-3.84c-.87-6.93-1.41-13.57-1.62-17.49a3.35,3.35,0,0,0-2.81-3.12c-.61-.1-1.46-.27-2.44-.47a102.71,102.71,0,0,0-21.16-2.35c-11.95,0-23,3.8-31.11,10.71-8.83,7.51-13.49,17.89-13.49,30s4.09,22.31,11.83,29.74,18.92,11.53,32,11.53c8.44,0,16.53-1.89,23-3.4l2.77-.65a3.47,3.47,0,0,0,2.64-4,60.58,60.58,0,0,1-.58-9.79v-8.63a21.15,21.15,0,0,1,.25-4.1,18.67,18.67,0,0,1,4.12-.87,3.41,3.41,0,0,0,2.89-3.44v-3.34A3.47,3.47,0,0,0,427.45,966.45Z"/><path class="cls-1" d="M520.39,998.9a13.71,13.71,0,0,1-7-4.3,102.22,102.22,0,0,1-9.12-11.41c-2.67-3.84-6.25-9.14-8.74-13,9.12-4.86,13.92-12.11,13.92-21.16,0-7.79-3.48-14.2-9.79-18-5-3.12-11.27-4.46-21.1-4.46H448.92a3.48,3.48,0,0,0-3.48,3.48v3.21a3.48,3.48,0,0,0,3.1,3.45c2.78.3,6.31.67,7,1.34s.78,5,.78,6.4v46c0,1.75,0,5.86-.67,6.54s-4.45,1-7,1.3a3.55,3.55,0,0,0-3.26,3.45v3a3.48,3.48,0,0,0,3.48,3.48h31.16a3.47,3.47,0,0,0,3.47-3.48v-3.4a3.51,3.51,0,0,0-3.24-3.44c-2.43-.23-6.09-.58-6.83-1.3s-.82-4.94-.82-6.5V975.52h.59c5.21,0,5.45.37,7,2.74,1.08,1.65,2.19,3.39,3.36,5.23,3,4.71,6.09,9.59,9.32,13.86,5.69,7.68,11.28,10.64,21.33,11.3l.52,0c1.42.11,2.75.21,4.33.2a3.47,3.47,0,0,0,3.42-3l.47-3.15A3.46,3.46,0,0,0,520.39,998.9Zm-47.73-59a11.17,11.17,0,0,1,.15-2.25,13.29,13.29,0,0,1,3.87-.39c6.2,0,13.59,2.32,13.59,13.36,0,5.33-1.52,8.85-4.94,11.39l-.16.12c-2.14,1.8-5.17,2.53-10.45,2.53h-2.06Z"/><path class="cls-1" d="M607.48,998c-3.87-.44-5.32-.82-6.22-1.63-1.17-1.07-2.26-3.63-3.87-8-9.3-25.37-16.48-44.9-22.61-61.45a3.47,3.47,0,0,0-3.89-2.2l-3.75.7a3.47,3.47,0,0,0-2.59,2.13l-24,60.53c-1.85,4.74-3.13,7.12-4.41,8.22-1.1.95-2.67,1.27-6,1.69a3.49,3.49,0,0,0-3,3.45v3.22a3.47,3.47,0,0,0,3.47,3.48H556.3a3.47,3.47,0,0,0,3.47-3.48v-3.23a3.52,3.52,0,0,0-3.16-3.45c-1.59-.19-5.67-.67-6.78-1.29a12.39,12.39,0,0,1,.92-3.71c1-2.76,2-5.43,3.06-8.26.47-1.24,1-2.5,1.44-3.81H575.9c1.12,3.16,2.2,6,3.17,8.56s1.77,4.67,2.44,6.6l0,.1c.17.45.28.78.35,1a26.86,26.86,0,0,1-4.55.79,3.47,3.47,0,0,0-3.05,3.45v3.22a3.47,3.47,0,0,0,3.47,3.48h29.35a3.47,3.47,0,0,0,3.47-3.48v-3.22A3.48,3.48,0,0,0,607.48,998Zm-47.24-28c2-5.34,4.09-10.88,6-15.89l5.65,15.89Z"/><path class="cls-1" d="M701.47,926.52H673.94a3.47,3.47,0,0,0-3.47,3.48v3.22a3.48,3.48,0,0,0,3.26,3.47c8.64.55,8.72,1.75,8.87,4.14a.45.45,0,0,1,0,.11c.28,2.77.56,7.16.56,18.79v18.73l-42.43-50.69a3.48,3.48,0,0,0-2.66-1.25H619.5A3.47,3.47,0,0,0,616,930v3.22a3.49,3.49,0,0,0,3.14,3.46c5.46.55,6.65,1.12,7.94,2.79l.08.1c1.39,1.68,1.54,2.58,1.54,5.41v29.19c0,9.15-.17,14.85-.56,19v0c-.23,2.81-.35,4.22-7.11,4.77a3.49,3.49,0,0,0-3.22,3.47v3.22a3.47,3.47,0,0,0,3.47,3.48h28.52s3.47-1.7,4.3-3.61v-3.23c-.83-1.81-2.21-3.31-4-3.46-8.06-.67-8.11-2-8.23-5v-.1c-.22-3.08-.57-8.23-.46-18.66V955.06l43.05,52.75a18.08,18.08,0,0,0,2.69,2.19h3.41a3.47,3.47,0,0,0,3.48-3.47V960c0-9.12.17-14,.29-17.51,0-.6,0-1.16.06-1.7.18-2.63.27-3.26,7.41-4a3.49,3.49,0,0,0,3.12-3.46V930A3.47,3.47,0,0,0,701.47,926.52Z"/><path class="cls-1" d="M774.87,947.24a3.27,3.27,0,0,0,2.72-3.48c-.43-5.75-.61-11.61-.72-14.31a3.27,3.27,0,0,0-3.54-3.13c-.74.06-3.74.2-15.48.2H722.93a3.48,3.48,0,0,0-3.47,3.48v3.22a3.37,3.37,0,0,0,2.89,3.46c1.95.2,4.89.5,5.45,1.16.74.88.74,5.5.74,7v45.51c0,1.88,0,5.39-.69,6.07-.85.85-5.12,1.17-7.17,1.33a3.27,3.27,0,0,0-3,3.27v3.67a3.47,3.47,0,0,0,3.47,3.48h57.14a3.53,3.53,0,0,0,3.35-2.24c1.24-3.44,4.43-14.73,5.14-17.57a3.27,3.27,0,0,0-2.53-3.9l-3.7-.91a3.49,3.49,0,0,0-3.94,1.82c-2.22,4.39-4.26,7.65-5.76,9.18l-.08.08c-2,2.24-2.42,2.65-8.22,2.65H751.64c-1.09,0-3.54-.07-4.13-.55-.14-.12-.83-.87-.83-4.54V971.89H756c1.45,0,4.84,0,5.63.68s1.42,3.92,1.74,5.65a3.47,3.47,0,0,0,3.45,2.74h3.64a3.47,3.47,0,0,0,3.47-3.47V953.38a3.24,3.24,0,0,0-2.37-2.88l-.53-.18a3.75,3.75,0,0,0-1.24-.2h-3a3.45,3.45,0,0,0-3.45,2.71c-.43,2.3-.92,4.9-1.64,5.59s-4.42.77-5.61.77h-9.41V937.41h10.63c6,0,7.83,2.56,7.85,2.59,1.4,1.77,1.7,2.45,2.75,5.39a2.94,2.94,0,0,0,1,1.62C770.62,948.32,774.87,947.24,774.87,947.24Z"/><path class="cls-1" d="M874.26,998.9a13.71,13.71,0,0,1-7-4.3,101.06,101.06,0,0,1-9.12-11.41c-2.67-3.84-6.25-9.14-8.75-13,9.13-4.86,13.92-12.11,13.92-21.16,0-7.79-3.47-14.2-9.78-18-5-3.12-11.28-4.46-21.1-4.46h-29.6a3.47,3.47,0,0,0-3.47,3.48v3.21a3.47,3.47,0,0,0,3.09,3.45c2.78.3,6.32.67,7,1.34s.78,5,.78,6.4v46c0,1.75,0,5.86-.68,6.54s-4.45,1-7,1.3a3.54,3.54,0,0,0-3.25,3.45v3a3.47,3.47,0,0,0,3.47,3.48H834a3.48,3.48,0,0,0,3.47-3.48v-3.4a3.52,3.52,0,0,0-3.25-3.44c-2.42-.23-6.09-.58-6.83-1.3s-.81-4.94-.81-6.5V975.52h.58c5.21,0,5.45.37,7,2.74,1.08,1.65,2.18,3.39,3.35,5.23,3,4.71,6.1,9.59,9.33,13.86,5.69,7.68,11.28,10.64,21.32,11.3l.53,0c1.41.11,2.74.21,4.32.2a3.48,3.48,0,0,0,3.43-3l.47-3.15A3.47,3.47,0,0,0,874.26,998.9Zm-47.73-59a11.58,11.58,0,0,1,.14-2.25,13.46,13.46,0,0,1,3.88-.39c6.2,0,13.58,2.32,13.58,13.36,0,5.33-1.52,8.85-4.94,11.39l-.16.12c-2.14,1.8-5.16,2.53-10.44,2.53h-2.06Z"/><path class="cls-1" d="M961.34,998c-3.87-.44-5.32-.82-6.21-1.63-1.17-1.07-2.27-3.63-3.88-8-9.29-25.37-16.47-44.9-22.61-61.45a3.46,3.46,0,0,0-3.89-2.2l-3.74.7a3.47,3.47,0,0,0-2.59,2.13l-24,60.53c-1.86,4.74-3.13,7.12-4.41,8.22-1.11.95-2.67,1.27-6,1.69a3.49,3.49,0,0,0-3,3.45v3.22a3.47,3.47,0,0,0,3.47,3.48h25.72a3.47,3.47,0,0,0,3.47-3.48v-3.23a3.51,3.51,0,0,0-3.15-3.45c-1.59-.19-5.68-.67-6.79-1.29a12.24,12.24,0,0,1,.93-3.71c1-2.76,2-5.43,3.06-8.26.47-1.24.94-2.5,1.43-3.81h20.65c1.13,3.16,2.2,6,3.18,8.56s1.77,4.67,2.43,6.6l0,.1c.17.45.28.78.35,1a26.84,26.84,0,0,1-4.56.79,3.48,3.48,0,0,0-3.05,3.45v3.22a3.48,3.48,0,0,0,3.47,3.48H961a3.48,3.48,0,0,0,3.48-3.48v-3.22A3.48,3.48,0,0,0,961.34,998Zm-47.53-28c2-5.34,4.09-10.88,6-15.89l5.64,15.89Z"/><rect class="cls-4" x="435.1" y="840.97" width="15.38" height="53.99"/><path class="cls-4" d="M496.76,869.25l-20.43-25.83a12.19,12.19,0,0,0-1-1.12,5.13,5.13,0,0,0-1.26-.84,5,5,0,0,0-1.45-.41,12.79,12.79,0,0,0-1.52-.08h-8v54H477V866.73l20.26,25.59a6.65,6.65,0,0,0,2.49,2.06,7.4,7.4,0,0,0,3,.57h7.9V841H496.76Z"/><path class="cls-4" d="M557.84,842.13a5.72,5.72,0,0,0-2,2.56l-9.68,27c-.25.71-.5,1.45-.75,2.24-.27-.79-.54-1.54-.8-2.25l-9.75-27a5.68,5.68,0,0,0-2-2.69,6,6,0,0,0-3.54-1H517.25l21.64,54h13l21.64-54H561.4A5.65,5.65,0,0,0,557.84,842.13Z"/><polygon class="cls-4" points="580.12 894.95 616.17 894.95 616.17 882.34 595.5 882.34 595.5 873.98 611.33 873.98 611.33 861.71 595.5 861.71 595.5 853.59 616.17 853.59 616.17 840.97 580.12 840.97 580.12 894.95"/><path class="cls-4" d="M659.93,874.67a10.39,10.39,0,0,0-1.91-2.33,17.18,17.18,0,0,0,1.83-1.23,16.62,16.62,0,0,0,3.56-3.7,16.07,16.07,0,0,0,2.21-4.54,18.13,18.13,0,0,0,.73-5.16,17.6,17.6,0,0,0-1.24-6.62,13.74,13.74,0,0,0-4.07-5.46,19.56,19.56,0,0,0-6.94-3.47,35.71,35.71,0,0,0-9.82-1.19H626.09v54H641.4V876.33h1.15a2.74,2.74,0,0,1,1.21.18,1.81,1.81,0,0,1,.61.7l8.36,14.63a6.27,6.27,0,0,0,5.79,3.11h13.81Zm-8.61-16.09a8.05,8.05,0,0,1-.39,2.51h0a4.64,4.64,0,0,1-1.12,1.8,5.54,5.54,0,0,1-2.08,1.26,10.64,10.64,0,0,1-3.45.49H641.4v-11.3h2.88c2.56,0,4.41.48,5.5,1.43A4.72,4.72,0,0,1,651.32,858.58Z"/></svg>