<svg id="Capa_1" data-name="Capa 1" xmlns="http://www.w3.org/2000/svg" viewBox="0 0 1080 1080"><defs><style>.cls-1{fill:#6e9033;}.cls-2{fill:#4062a1;}.cls-3{fill:#363559;}</style></defs><title>recursos LOGO LA GRANERA SVG</title><path class="cls-1" d="M712.55,843.39c0-178.58,82.73-337.81,211.92-441.54a19.52,19.52,0,0,0,6.12-22.09c-.84-2.19-1.68-4.37-2.55-6.54a19.58,19.58,0,0,0-30.44-8.11c-137.33,111.12-225.16,281-225.16,471.43q0,27.8,2.49,55a19.53,19.53,0,0,0,26.88,16.26l.37-.16a19.64,19.64,0,0,0,12.11-19.69Q712.57,865.88,712.55,843.39Z"/><path class="cls-1" d="M794.32,842.4c0-140,59.39-266,154.33-354.44a17.13,17.13,0,0,0,5.21-14.7l-.06-.46c-2-15.9-21.41-22.67-33-11.61C821.73,555.63,760,688.87,760,836.54q0,5,.1,10a17.05,17.05,0,0,0,27.11,13.38h0a17.32,17.32,0,0,0,7.12-14.12C794.32,844.63,794.32,843.52,794.32,842.4Z"/><path class="cls-1" d="M952.79,586.4c0-.18.05-.36.08-.55,2.39-16.47-18.83-25.28-28.74-11.92a438.75,438.75,0,0,0-81.62,195.71c-2.3,15.14,16.93,23.53,26.39,11.49l.32-.4a14.62,14.62,0,0,0,2.93-6.69A410,410,0,0,1,949.9,593.2,14.79,14.79,0,0,0,952.79,586.4Z"/><path class="cls-2" d="M421.68,768.69a42.87,42.87,0,0,1-3.46-8C417.85,763.93,418,767.63,421.68,768.69Z"/><path class="cls-2" d="M155.6,492.44c23.93-27.13,53.93-53.68,89-78.64a80.13,80.13,0,0,0,33.67-66.18c-.45-43,3.36-82.91,11.2-118.22,2.83-12.72-12.35-21.66-22.05-13a415,415,0,0,0-135.25,265.8C130.82,495.2,147,502.21,155.6,492.44Z"/><path class="cls-2" d="M654.07,225.29A80.14,80.14,0,0,0,720.25,259c43-.45,82.9,3.35,118.21,11.2,12.72,2.82,21.67-12.36,13-22.05a415,415,0,0,0-265.8-135.26c-13-1.33-20,14.84-10.19,23.46C602.55,160.24,629.11,190.25,654.07,225.29Z"/><path class="cls-2" d="M202.71,625.53a43,43,0,0,1,43,43v23.09A100.18,100.18,0,0,0,249,718.5c.07.25.14.5.2.76a41.5,41.5,0,0,0,11.21,19.37c1,1,2.08,2.08,3.13,3.18A86.57,86.57,0,0,0,293,762.18c6.89,2.89,13.74,6.63,17.15,11,5.77,7.42,17.57,4.72,18.81-4.6q.06-.37.09-.75c1.21-11.11,2.53-18,4.59-23.62A143.34,143.34,0,0,1,361.2,698,939.73,939.73,0,0,1,293.49,489.3c-4.76-24.09-32.5-35.62-53-22.14-40.43,26.55-73.89,54.2-98.59,81.51a34.26,34.26,0,0,0-8.63,27.24,416.56,416.56,0,0,0,17.14,76.36l.09.27c3,9.21,15.56,10.33,20.32,1.89C178.66,640.49,190.06,625.53,202.71,625.53Z"/><path class="cls-2" d="M368.09,342.71A940.28,940.28,0,0,1,578.55,274.2a34.54,34.54,0,0,0,22.28-52.84c-26.52-40.4-54.15-73.86-81.43-98.59A34.75,34.75,0,0,0,491.66,114,417.88,417.88,0,0,0,344,162a34.77,34.77,0,0,0-17.26,23.43c-7.5,36.05-10.14,79.36-7.79,127.64A34.55,34.55,0,0,0,368.09,342.71Z"/><path class="cls-2" d="M869.9,305.13l-.13,0c-33.42-5.66-72.36-7.49-115.2-5.4A34.43,34.43,0,0,0,725,348.53q13.38,28.8,25.17,59.77a20.15,20.15,0,0,0,34.31,5.79,592.76,592.76,0,0,1,90.74-87.56A12.08,12.08,0,0,0,869.9,305.13Z"/><path class="cls-2" d="M716,468.18c-12.18-37.43-25.79-73.2-40.46-106.84a68.68,68.68,0,0,0-77.85-39.62c-35.83,7.95-72.76,18-110.19,30.18s-73.19,25.8-106.84,40.46A68.68,68.68,0,0,0,341,470.22C349,506.05,359,543,371.19,580.4q13.2,40.58,28.51,78.38c.73,1.79,1.75,4.21,2.93,7,3.35-1.73,6.74-3.37,10.23-4.84L567.77,595.7a69.74,69.74,0,0,1,74.12,12.38,71.62,71.62,0,0,1,8.51,9c7.07,8.95,21.19,6.72,24.66-4.15a584.77,584.77,0,0,1,41.66-98.55,44.29,44.29,0,0,0,3.13-34.08Q717.95,474.27,716,468.18Z"/><path class="cls-2" d="M418.22,760.71a42.87,42.87,0,0,0,3.46,8C418,767.63,417.85,763.93,418.22,760.71Z"/><path class="cls-3" d="M624.42,669.15c7.27-24.76-17.47-46.87-41.25-36.86L428.26,697.48A103.71,103.71,0,0,0,371,757.76c-.91,2.51-1.72,7.74-2.44,14.36A69,69,0,0,1,300,833.83H278a7.4,7.4,0,0,1-7.4-7.4V812.76a3.77,3.77,0,0,1,3.76-3.77,5.62,5.62,0,0,0,5.63-5.62V801a5.63,5.63,0,0,0-5.63-5.63H241.7a5.62,5.62,0,0,1-5.62-5.62v-19.1a5.19,5.19,0,0,0-5.19-5.19h-16.6a3.44,3.44,0,0,1-3.44-3.45V729.94a3.09,3.09,0,0,0-3.1-3.09,1.76,1.76,0,0,1-1.76-1.76V668.52a3.29,3.29,0,1,0-6.57,0v56.57a1.76,1.76,0,0,1-1.76,1.76,3.09,3.09,0,0,0-3.09,3.09V762a3.44,3.44,0,0,1-3.45,3.45h-16.6a5.18,5.18,0,0,0-5.18,5.19v19.1a5.62,5.62,0,0,1-5.63,5.62H131a5.63,5.63,0,0,0-5.62,5.63v2.38A5.62,5.62,0,0,0,131,809h0a3.77,3.77,0,0,1,3.77,3.77v13.67a7.4,7.4,0,0,1-7.4,7.4,22.33,22.33,0,0,0-21.67,16.95c-1.66,6.73-3.07,13.52-5,20.16l-5.18,17.43a16.22,16.22,0,0,0,15.55,20.85H234.13v0H594.72a13.84,13.84,0,0,0,12.07-20.61l-14.24-25.39a80.17,80.17,0,0,1-7-61.83Zm-198.31,99.7c-10.3,1.35-7.95-7.2-7.46-11.32,1.71-14.28,4.17-16.43,14-18.17,6.83-1.2,6.24,6.52,6.36,9.4C439.82,765.29,436.9,767.44,426.11,768.85Zm37.51-17.25c-10.3,1.35-7.95-7.2-7.45-11.32,1.7-14.28,4.17-16.43,14-18.17,6.83-1.21,6.24,6.52,6.36,9.4C477.33,748,474.41,750.19,463.62,751.6Zm37.52-16.43c-10.3,1.35-7.95-7.21-7.46-11.33,1.71-14.28,4.17-16.42,14-18.16,6.83-1.21,6.24,6.51,6.36,9.39C514.85,731.6,511.93,733.76,501.14,735.17Zm37.51-14.88c-10.3,1.34-7.95-7.21-7.45-11.33,1.7-14.28,4.17-16.42,14-18.16,6.83-1.21,6.24,6.51,6.36,9.39C552.36,716.72,549.44,718.88,538.65,720.29Z"/></svg>